<svg width="425" height="363" viewBox="0 0 425 363" fill="none" xmlns="http://www.w3.org/2000/svg">
<g clip-path="url(#clip0_344_2946)">
<path d="M331.721 58.5293H302.912V304.052C302.912 307.904 302.153 311.719 300.679 315.277C299.204 318.836 297.042 322.07 294.318 324.794C291.593 327.518 288.358 329.679 284.797 331.153C281.237 332.627 277.421 333.386 273.568 333.386H53.3127V333.666C53.3127 337.519 54.0718 341.333 55.5464 344.892C57.0211 348.451 59.1826 351.685 61.9075 354.409C64.6324 357.132 67.8673 359.293 71.4276 360.767C74.9878 362.242 78.8036 363 82.6572 363H331.721C335.575 363 339.391 362.242 342.951 360.767C346.511 359.293 349.746 357.133 352.471 354.409C355.196 351.685 357.357 348.451 358.832 344.892C360.307 341.333 361.066 337.519 361.066 333.666V87.8631C361.066 84.011 360.307 80.1965 358.832 76.6375C357.357 73.0786 355.196 69.8449 352.471 67.121C349.746 64.3971 346.511 62.2363 342.951 60.7622C339.391 59.288 335.575 58.5293 331.721 58.5293Z" fill="#F2F2F2"/>
<path d="M296.073 33.3428H12.6801C5.95321 33.3428 0.5 38.794 0.5 45.5185V325.638C0.5 332.363 5.95321 337.814 12.6801 337.814H296.073C302.8 337.814 308.253 332.363 308.253 325.638V45.5185C308.253 38.794 302.8 33.3428 296.073 33.3428Z" fill="#F2F2F2"/>
<path d="M29.8447 39.375C23.6625 39.375 17.7336 41.83 13.3622 46.1998C8.99076 50.5696 6.53491 56.4964 6.53491 62.6763V308.48C6.53491 314.66 8.99075 320.587 13.3622 324.956C17.7336 329.326 23.6625 331.781 29.8447 331.781H188.803C251.44 331.781 302.218 281.022 302.218 218.408V62.6763C302.218 56.4964 299.762 50.5696 295.391 46.1998C291.019 41.83 285.09 39.375 278.908 39.375H29.8447Z" fill="white"/>
<path d="M314.988 204.335C313.715 204.687 312.38 204.759 311.076 204.546C309.773 204.332 308.531 203.838 307.437 203.097C306.343 202.357 305.423 201.387 304.741 200.256C304.059 199.125 303.63 197.86 303.485 196.547L259.962 183.408L260.638 170.48L312.217 186.464C314.446 186.384 316.626 187.125 318.345 188.545C320.063 189.965 321.201 191.966 321.543 194.169C321.884 196.372 321.406 198.623 320.198 200.497C318.989 202.371 317.136 203.736 314.988 204.335Z" fill="#FFB6B6"/>
<path d="M168.454 137.649C164.047 133.973 170.5 115.751 168.76 110.47C168.656 110.15 168.557 109.829 168.463 109.508C168.266 108.826 168.31 108.097 168.588 107.445L184.946 99.7529C189.208 101.494 193.136 103.962 196.553 107.047L221.823 135.899L246.929 158.565L257.944 163.474L294.448 179.749L294.069 180.84L294.066 180.843L290.054 192.492L290.054 192.499L298.08 198.092L271.802 194.135L254.423 186.969L237.689 180.07C212.981 165.205 172.329 157.5 168.454 137.649Z" fill="#3F5902"/>
<path d="M284.921 271.355C284.439 271.575 283.901 271.641 283.38 271.544C282.859 271.448 282.38 271.193 282.009 270.816C281.637 270.438 281.39 269.955 281.302 269.433C281.214 268.911 281.289 268.374 281.516 267.895C281.481 267.631 281.455 267.441 281.419 267.176C281.376 267.133 281.334 267.089 281.291 267.046C276.972 262.666 269.501 265.701 269.425 271.85C269.358 277.308 268.762 282.987 270.136 288.179C270.745 290.473 271.747 292.645 273.098 294.597C264.542 286.471 257.834 276.602 253.429 265.658C252.326 262.91 251.378 260.103 250.589 257.25C249.944 254.91 249.404 252.547 248.967 250.161C246.614 237.206 247.367 223.879 251.167 211.272C254.051 207.779 255.796 203.487 256.165 198.972C256.302 197.347 256.204 195.711 255.873 194.114C255.479 194.336 251.783 188.457 251.941 187.942C251.007 187.294 249.793 187.273 248.815 186.668C243.949 183.658 239.905 186.144 239.965 192.859C236.101 197.243 237.679 201.315 242.214 204.022C245.099 205.745 246.704 208.996 249.428 210.987C249.345 211.273 249.252 211.556 249.169 211.843C247.656 217.104 246.664 222.5 246.204 227.955C244.83 222.66 241.445 216.974 238.254 213.713C234.619 209.996 229.65 207.631 225.056 205C219.536 201.84 212.833 206.87 214.539 212.995C214.556 213.054 214.572 213.113 214.589 213.172C215.145 213.246 215.697 213.34 216.246 213.453C216.937 213.599 217.568 213.95 218.056 214.46C218.544 214.97 218.867 215.616 218.981 216.313C219.096 217.009 218.998 217.724 218.699 218.364C218.4 219.004 217.915 219.539 217.307 219.898L217.245 219.935C218.061 221.503 218.994 223.006 220.038 224.432C222.19 241.128 232.847 243.253 245.009 238.668C245.33 238.698 245.645 238.73 245.963 238.753C246.274 246.16 247.547 253.494 249.75 260.573C251.063 264.743 252.711 268.801 254.678 272.707L254.6 272.571C251.923 268.425 247.897 265.329 243.201 263.806C236.252 261.608 228.232 262.986 221.208 261.794C217.827 261.221 215.209 264.761 216.944 267.718C216.972 267.765 217 267.813 217.028 267.86C218.006 267.865 218.983 267.931 219.952 268.058C220.508 268.132 221.06 268.226 221.609 268.339C222.3 268.485 222.931 268.836 223.419 269.346C223.907 269.856 224.23 270.502 224.344 271.199C224.459 271.895 224.361 272.61 224.062 273.25C223.763 273.89 223.278 274.425 222.67 274.784L222.608 274.821C222.563 274.847 222.525 274.87 222.48 274.896C225.291 277.749 228.572 280.098 232.181 281.838C239.922 294.064 250.933 291.107 260.633 282.757L260.64 282.755C264.021 287.618 267.899 292.118 272.211 296.18L291.26 288.549C291.244 288.31 291.218 288.067 291.194 287.83C289.476 288.647 287.663 289.251 285.797 289.628C286.516 287.328 287.229 285.015 287.947 282.715C287.965 282.67 287.981 282.624 287.995 282.577C288.356 281.403 288.727 280.232 289.088 279.058L289.088 279.056C288.036 276.321 286.636 273.733 284.922 271.355L284.921 271.355Z" fill="#F2F2F2"/>
<path d="M180.218 288.114L179.999 287.841C179.371 283.798 180.218 288.114 180.218 288.114Z" fill="#2F2E41"/>
<path d="M191.376 331.723H130.349C125.608 319.941 122.317 311.514 122.317 311.514C122.317 311.514 121.518 319.768 120.377 331.723H65.205C64.6886 299.236 63.9658 265.878 63.7278 255.284L169.627 257.642L180.16 270.995C180.196 271.219 180.232 271.464 180.277 271.742C180.704 274.455 186.437 303.579 191.376 331.723Z" fill="#2F2E41"/>
<path d="M190.451 103.228L190.441 103.209C190.104 102.584 189.563 102.095 188.907 101.823C182.207 96.6259 174.87 94.2569 166.637 95.877C165.289 91.7979 164.032 91.7979 164.032 91.7979L146.174 85.9022L143.606 70.2182L99.6067 68.7295L95.608 88.3014C95.608 88.3014 71.0147 92.7084 71.0147 95.8953C71.0147 99.0821 75.1136 99.0821 71.0147 99.0821C66.9158 99.0821 65.8182 95.44 62.2704 99.0821C61.9665 99.3881 61.6456 99.6769 61.3095 99.9472C61.2685 99.9836 61.2229 100.015 61.1819 100.052C57.1724 103.204 54.0215 107.315 52.0197 112.006C50.0179 116.696 49.2297 121.815 49.7278 126.89L57.2926 202.114L65.3673 282.382L175.873 286.98L183.274 218.676L190.802 105.031C190.869 104.408 190.747 103.78 190.451 103.228Z" fill="#3F5902"/>
<path d="M9.04777 304.952C9.6787 306.539 10.3154 307.702 10.9578 308.277L225.275 308.732C225.917 308.157 226.554 306.994 227.185 305.408C234.681 286.557 220.54 266.115 200.247 266.076L35.9966 265.765C15.7311 265.726 1.56199 286.127 9.04777 304.952Z" fill="white"/>
<path d="M225.448 309.187L225.274 309.187L10.7833 308.731L10.6541 308.615C9.98604 308.017 9.32224 306.874 8.62464 305.12C6.85042 300.735 6.19601 295.977 6.72042 291.275C7.24483 286.574 8.93156 282.077 11.6285 278.19C14.3213 274.222 17.9449 270.973 22.183 268.728C26.421 266.483 31.1445 265.309 35.9409 265.31H35.9974L200.248 265.621C205.061 265.63 209.8 266.818 214.049 269.079C218.298 271.34 221.929 274.607 224.624 278.594C227.317 282.493 229 286.999 229.521 291.708C230.042 296.418 229.384 301.183 227.608 305.576C226.91 307.33 226.246 308.473 225.578 309.071L225.448 309.187ZM25.277 307.779L207 307.228C219.827 307.189 229.263 294.811 225.462 282.565C225.103 281.34 224.567 280.174 223.87 279.104C221.258 275.24 217.739 272.074 213.621 269.883C209.503 267.691 204.911 266.541 200.246 266.532L35.9956 266.22H35.9409C33.8553 266.29 31.7986 266.729 29.8668 267.518C19.2573 271.531 12.1627 281.619 11.5728 292.944C11.5653 293.088 11.5578 293.232 11.5503 293.376C11.4577 295.173 11.72 296.97 12.3221 298.665C12.9242 300.36 13.8544 301.92 15.0595 303.255C16.2647 304.591 17.7213 305.676 19.346 306.449C20.9708 307.222 22.7319 307.668 24.5289 307.761C24.7781 307.773 25.0274 307.779 25.277 307.779Z" fill="#E6E6E6"/>
<path d="M266.955 144.073C264.608 134.219 264.999 124.512 269.019 115.003C269.061 114.414 269.335 113.867 269.781 113.48C270.227 113.094 270.808 112.9 271.396 112.941L293.359 114.499C293.947 114.541 294.495 114.815 294.882 115.261C295.269 115.706 295.463 116.287 295.421 116.876L293.358 145.946C293.316 146.534 293.041 147.082 292.596 147.468C292.15 147.855 291.569 148.049 290.98 148.008L269.018 146.45C268.429 146.408 267.882 146.134 267.495 145.688C267.108 145.242 266.914 144.662 266.955 144.073Z" fill="#F2F2F2"/>
<path d="M269.263 135.412C267.385 130.556 268.586 123.877 270.59 116.723C270.629 116.172 270.886 115.659 271.304 115.297C271.721 114.935 272.265 114.754 272.816 114.792L291.691 116.131C292.243 116.171 292.756 116.427 293.118 116.845C293.48 117.262 293.662 117.806 293.623 118.357L291.787 144.226C291.747 144.777 291.49 145.289 291.073 145.651C290.655 146.013 290.111 146.195 289.56 146.157L277.867 145.327C275.412 145.15 273.127 144.007 271.514 142.148C269.901 140.29 269.092 137.867 269.263 135.412Z" fill="white"/>
<path d="M282.331 136.68C281.754 136.581 281.178 136.482 280.601 136.383C280.867 135.756 281.02 135.088 281.054 134.408C281.327 130.77 281.354 127.097 281.5 123.451C281.496 123.318 281.454 123.188 281.378 123.078C281.303 122.969 281.197 122.883 281.073 122.832C280.95 122.781 280.815 122.767 280.683 122.791C280.552 122.815 280.431 122.876 280.334 122.968C278.886 124.167 277.438 125.366 275.99 126.565C275.312 127.126 276.283 128.087 276.956 127.53C277.995 126.67 279.035 125.809 280.074 124.949C279.978 127.338 279.883 129.727 279.788 132.115C279.742 133.262 279.881 134.654 279.412 135.732C279.348 135.877 279.264 136.013 279.163 136.136C278.524 136.026 277.886 135.917 277.248 135.807C276.789 135.728 276.205 136.111 276.407 136.647C276.847 137.812 278.142 138.18 279.252 137.731C279.35 137.687 279.445 137.637 279.536 137.58L281.968 137.997C282.828 138.145 283.197 136.829 282.331 136.68Z" fill="#3F5902"/>
<path d="M394.476 241.956C392.129 232.101 392.52 222.395 396.539 212.886C396.582 212.297 396.856 211.75 397.302 211.363C397.748 210.977 398.328 210.783 398.917 210.824L420.88 212.382C421.468 212.424 422.016 212.698 422.403 213.144C422.789 213.589 422.983 214.17 422.942 214.758L420.879 243.829C420.836 244.417 420.562 244.965 420.116 245.351C419.671 245.738 419.09 245.932 418.501 245.891L396.539 244.333C395.95 244.29 395.402 244.016 395.016 243.571C394.629 243.125 394.435 242.544 394.476 241.956Z" fill="#F2F2F2"/>
<path d="M396.784 233.295C394.905 228.439 396.106 221.76 398.11 214.606C398.15 214.055 398.407 213.542 398.824 213.18C399.242 212.818 399.786 212.637 400.337 212.675L419.212 214.014C419.763 214.054 420.276 214.31 420.638 214.727C421.001 215.145 421.182 215.689 421.144 216.24L419.308 242.108C419.268 242.659 419.011 243.172 418.594 243.534C418.176 243.896 417.632 244.078 417.081 244.039L405.388 243.21C402.933 243.033 400.648 241.89 399.035 240.031C397.422 238.172 396.612 235.75 396.784 233.295Z" fill="white"/>
<path d="M409.106 228.363C409.356 228.245 409.594 228.102 409.814 227.933C410.399 227.451 410.832 226.809 411.059 226.086C411.287 225.362 411.299 224.588 411.096 223.858C410.21 220.606 406.318 220.586 403.631 220.977C402.765 221.103 403.133 222.42 403.995 222.294C405.805 222.03 408.648 221.817 409.621 223.794C409.843 224.259 409.922 224.779 409.848 225.288C409.774 225.797 409.55 226.273 409.205 226.655C408.793 227.069 408.249 227.328 407.668 227.386C407.104 227.141 406.492 227.027 405.879 227.053C405.246 227.083 404.893 228.003 405.534 228.325C406.101 228.608 406.726 228.755 407.36 228.756C407.885 229.009 408.324 229.412 408.622 229.914C408.919 230.416 409.061 230.995 409.03 231.577C408.97 231.975 408.832 232.356 408.624 232.7C408.416 233.045 408.142 233.344 407.819 233.583C407.495 233.821 407.127 233.993 406.737 234.09C406.347 234.186 405.941 234.205 405.544 234.144L405.527 234.142C404.668 233.969 404.301 235.285 405.164 235.459C406.321 235.677 407.517 235.426 408.49 234.762C409.462 234.098 410.131 233.076 410.349 231.919C410.361 231.856 410.372 231.793 410.381 231.73C410.435 231.109 410.348 230.484 410.128 229.901C409.907 229.318 409.558 228.792 409.106 228.363Z" fill="#3F5902"/>
<path d="M369.883 86.2549C367.535 76.4002 367.927 66.694 371.946 57.1844C371.989 56.5961 372.263 56.0486 372.708 55.6621C373.154 55.2755 373.735 55.0815 374.324 55.1226L396.286 56.6804C396.875 56.7228 397.423 56.9969 397.809 57.4425C398.196 57.888 398.39 58.4687 398.349 59.0572L396.285 88.1277C396.243 88.716 395.969 89.2635 395.523 89.65C395.077 90.0365 394.496 90.2305 393.908 90.1894L371.945 88.6316C371.357 88.5892 370.809 88.3152 370.422 87.8696C370.036 87.424 369.842 86.8433 369.883 86.2549Z" fill="#F2F2F2"/>
<path d="M372.191 77.5939C370.312 72.7377 371.513 66.0589 373.517 58.9047C373.557 58.3538 373.814 57.841 374.231 57.479C374.649 57.117 375.193 56.9353 375.744 56.9738L394.619 58.3126C395.17 58.3523 395.683 58.609 396.045 59.0263C396.407 59.4436 396.589 59.9874 396.551 60.5385L394.714 86.4073C394.675 86.9583 394.418 87.4711 394 87.8331C393.583 88.1951 393.039 88.3768 392.488 88.3383L380.795 87.5089C378.34 87.332 376.055 86.1887 374.442 84.3299C372.829 82.4711 372.019 80.0486 372.191 77.5939Z" fill="white"/>
<path d="M383.798 64.5754C381.863 63.9042 379.711 65.4338 379.492 67.417C379.243 69.6648 381.662 71.4392 383.756 70.8283C384.598 70.5826 384.239 69.2642 383.392 69.5113C381.857 69.9591 380.22 68.3024 381.103 66.8212C381.303 66.4637 381.608 66.1757 381.976 65.9956C382.344 65.8155 382.759 65.7517 383.164 65.8129C383.508 65.9082 383.825 66.0828 384.09 66.3227C384.354 66.5627 384.559 66.8612 384.687 67.1944C385.44 68.8909 384.545 70.6133 383.359 71.8464C382.683 72.5496 381.889 73.0961 381.16 73.7371C380.805 74.0049 380.511 74.3439 380.295 74.7324C380.08 75.1209 379.948 75.5501 379.909 75.9925C379.928 76.4901 380.083 76.9729 380.357 77.3887C380.631 77.8046 381.013 78.1376 381.463 78.3519C382.628 78.9507 383.953 78.7603 385.192 78.561C386.058 78.4218 385.69 77.1054 384.829 77.244C383.745 77.4183 382.122 77.6825 381.436 76.5528C380.847 75.5854 382.059 74.7359 382.719 74.2213C384.379 72.9279 386.057 71.2576 386.306 69.0585C386.51 67.257 385.594 65.1985 383.798 64.5754Z" fill="#3F5902"/>
<path d="M50.5045 197.645L61.3255 202.517C56.2383 206.641 48.4915 212.191 40.904 214.759L28.8487 206.541C24.3582 189.232 27.109 171.395 32.5058 156.312C35.4959 147.931 39.4611 139.93 44.3197 132.474C43.8221 127.399 44.6105 122.28 46.6122 117.59C48.6139 112.9 51.7646 108.789 55.7738 105.636C55.8193 105.6 55.8603 105.568 55.9013 105.531C59.8946 108.995 63.1565 113.221 65.4963 117.96C67.8361 122.7 69.2067 127.859 69.5278 133.134L69.7692 137.122L70.252 144.98L71.4771 165.048L56.9488 187.629L50.5045 197.645Z" fill="#3F5902"/>
<path d="M81.6361 283.318C81.7626 283.477 81.9234 283.605 82.1064 283.692C82.2894 283.78 82.4898 283.825 82.6927 283.824H156.627C156.83 283.823 157.029 283.778 157.212 283.691C157.394 283.604 157.555 283.477 157.682 283.32C157.81 283.163 157.9 282.98 157.948 282.784C157.996 282.587 157.999 282.383 157.957 282.185L156.81 276.735C156.762 276.513 156.66 276.306 156.512 276.134C156.364 275.961 156.175 275.828 155.962 275.747C155.809 275.687 155.645 275.656 155.48 275.656H83.8358C83.6706 275.656 83.5069 275.687 83.3531 275.747C83.1407 275.828 82.9519 275.961 82.8039 276.134C82.6559 276.306 82.5535 276.513 82.506 276.735L81.3583 282.185C81.3174 282.382 81.3212 282.587 81.3692 282.783C81.4173 282.979 81.5085 283.162 81.6361 283.318Z" fill="#2F2E41"/>
<path d="M53.3311 161.325V246.579C53.3319 247.665 53.764 248.707 54.5325 249.475C55.301 250.243 56.3431 250.675 57.4299 250.676H183.812C184.899 250.675 185.941 250.243 186.71 249.475C187.478 248.707 187.91 247.665 187.911 246.579V161.325C187.908 160.24 187.476 159.2 186.707 158.432C185.939 157.665 184.898 157.234 183.812 157.232H57.4299C56.3441 157.234 55.303 157.665 54.5347 158.432C53.7665 159.2 53.3336 160.24 53.3311 161.325Z" fill="#3F3D56"/>
<path d="M104.808 233.949V280.641H137.531V233.949C137.532 233.613 137.425 233.286 137.225 233.016C137.026 232.746 136.745 232.546 136.425 232.447C136.273 232.397 136.115 232.372 135.955 232.374H106.389C105.971 232.373 105.569 232.539 105.273 232.834C104.976 233.129 104.809 233.53 104.808 233.948V233.949ZM117.579 249.993C117.587 249.072 117.959 248.193 118.613 247.545C119.268 246.897 120.151 246.534 121.072 246.534C121.993 246.534 122.876 246.897 123.53 247.545C124.185 248.193 124.556 249.072 124.565 249.993V255.411C124.56 256.334 124.19 257.217 123.536 257.868C122.881 258.519 121.995 258.885 121.072 258.885C120.149 258.885 119.263 258.519 118.608 257.868C117.954 257.217 117.583 256.334 117.579 255.411V249.993Z" fill="#2F2E41"/>
<path d="M123.906 66.9814C139.633 66.9814 152.383 54.2366 152.383 38.5151C152.383 22.7936 139.633 10.0488 123.906 10.0488C108.179 10.0488 95.4296 22.7936 95.4296 38.5151C95.4296 54.2366 108.179 66.9814 123.906 66.9814Z" fill="#FFB6B6"/>
<path d="M158.002 33.5357C154.932 34.4885 151.972 35.0501 149.976 32.5327C147.979 30.0153 148.501 27.1369 145.531 25.9233C143.133 24.9405 140.364 25.3617 137.946 26.2744C137.515 26.4349 137.093 26.6154 136.682 26.7959C136.451 26.5953 136.22 26.4048 135.97 26.2242C134.082 24.8824 131.752 24.3153 129.458 24.6396C131.135 25.449 132.514 26.7647 133.401 28.4006C132.578 28.8118 131.695 29.1191 130.903 29.574C120.028 35.8243 107.934 38.3415 108.921 27.9092C112.212 36.5745 109.653 39.6636 104.827 47.5768L104.637 48.0381C105.118 45.9621 101.732 45.8637 98.8075 46.5738C96.6472 47.0984 98.0452 52.1325 100.814 55.6003C94.6237 46.2829 85.352 32.0573 93.3696 24.9204C94.5521 23.8678 95.2941 22.3827 95.5066 18.5818C95.6325 16.3283 99.4696 15.7636 101.496 16.7665C101.79 13.378 102.974 10.1274 104.93 7.34435C106.886 4.56133 109.543 2.34497 112.633 0.920139C118.833 -1.83793 125.139 2.40481 131.876 3.22688C135.614 3.683 138.449 5.18795 138.598 9.9566C138.698 13.1322 143.484 14.2692 146.615 14.8309C148.601 15.1819 150.838 14.9713 152.424 16.225C154.26 17.6792 154.28 20.2367 154.27 22.6939C152.473 22.6427 150.702 23.128 149.183 24.0879C151.043 24.1347 152.84 24.7664 154.32 25.8933C154.348 25.9108 154.375 25.931 154.4 25.9534C154.942 30.0856 154.721 30.9582 158.002 33.5357Z" fill="#2F2E41"/>
<path d="M178.54 172.337C189.667 168.881 201.579 172.619 212.767 169.428C215.34 168.724 217.773 167.582 219.958 166.052C221.822 164.639 223.572 163.083 225.192 161.396C228.557 158.069 232.212 154.574 237.269 154.613C243.927 154.664 249.04 159.608 253.478 163.974C254.105 164.591 255.072 163.626 254.444 163.008C250.366 158.996 245.96 154.764 240.155 153.567C237.551 152.989 234.833 153.215 232.359 154.214C230.214 155.188 228.254 156.528 226.567 158.173C224.779 159.812 223.13 161.597 221.318 163.209C219.427 164.93 217.248 166.305 214.88 167.272C209.751 169.313 204.125 169.559 198.67 169.5C191.822 169.425 184.811 168.959 178.177 171.02C177.34 171.28 177.697 172.599 178.54 172.337Z" fill="#3F3D56"/>
<path d="M255.918 154.77L259.339 160.797L260.994 163.714C261.288 164.232 261.59 164.747 261.877 165.269C262.052 165.59 262.437 166.169 262.07 166.473C261.747 166.631 261.385 166.687 261.03 166.636C260.427 166.637 259.824 166.623 259.221 166.617L255.829 166.583L248.818 166.512C248.641 166.518 248.473 166.593 248.35 166.72C248.227 166.848 248.158 167.018 248.158 167.195C248.158 167.372 248.227 167.542 248.35 167.67C248.473 167.797 248.641 167.872 248.818 167.878C252.888 167.919 256.96 168.005 261.03 168.001C261.74 168.069 262.451 167.875 263.027 167.455C263.31 167.174 263.497 166.812 263.562 166.419C263.627 166.026 263.566 165.623 263.39 165.266C262.988 164.391 262.527 163.544 262.008 162.733L260.519 160.108L257.098 154.08C257.003 153.93 256.854 153.823 256.682 153.781C256.51 153.739 256.328 153.766 256.175 153.855C256.022 153.945 255.91 154.09 255.862 154.26C255.814 154.431 255.834 154.614 255.918 154.77Z" fill="#3F3D56"/>
<path d="M301.129 169.539H269.69C269.518 169.54 269.347 169.506 269.188 169.441C269.029 169.376 268.884 169.28 268.762 169.159C268.639 169.037 268.542 168.893 268.476 168.735C268.409 168.576 268.375 168.405 268.375 168.233C268.374 168.061 268.407 167.891 268.473 167.732C268.538 167.572 268.634 167.428 268.756 167.306C268.877 167.184 269.022 167.087 269.181 167.021C269.339 166.955 269.51 166.92 269.682 166.92C269.685 166.92 269.687 166.92 269.69 166.92H301.129C301.301 166.919 301.471 166.952 301.631 167.018C301.79 167.083 301.935 167.179 302.057 167.3C302.179 167.421 302.276 167.566 302.343 167.724C302.409 167.883 302.444 168.053 302.444 168.225C302.445 168.398 302.411 168.568 302.346 168.727C302.28 168.886 302.184 169.031 302.063 169.153C301.941 169.275 301.797 169.372 301.638 169.438C301.479 169.504 301.309 169.539 301.137 169.539C301.134 169.539 301.131 169.539 301.129 169.539Z" fill="#E6E6E6"/>
<path d="M301.129 190.631H269.69C269.518 190.631 269.347 190.598 269.188 190.533C269.029 190.467 268.884 190.371 268.762 190.25C268.64 190.129 268.544 189.985 268.477 189.826C268.411 189.667 268.377 189.497 268.376 189.325C268.375 189.153 268.409 188.983 268.474 188.824C268.54 188.665 268.636 188.52 268.757 188.398C268.878 188.276 269.022 188.179 269.181 188.113C269.34 188.047 269.51 188.012 269.682 188.012C269.685 188.012 269.687 188.012 269.69 188.012H301.129C301.301 188.011 301.471 188.045 301.63 188.11C301.789 188.175 301.934 188.271 302.056 188.392C302.178 188.514 302.275 188.658 302.341 188.816C302.408 188.975 302.442 189.145 302.443 189.317C302.443 189.489 302.41 189.66 302.344 189.819C302.279 189.978 302.183 190.122 302.062 190.244C301.94 190.366 301.796 190.463 301.638 190.529C301.479 190.596 301.309 190.63 301.137 190.631C301.134 190.631 301.131 190.631 301.129 190.631Z" fill="#E6E6E6"/>
<path d="M331.991 180.085H269.69C269.518 180.086 269.347 180.052 269.188 179.987C269.029 179.922 268.884 179.826 268.762 179.705C268.639 179.583 268.542 179.439 268.476 179.28C268.409 179.122 268.375 178.951 268.375 178.779C268.374 178.607 268.407 178.437 268.473 178.278C268.538 178.118 268.634 177.974 268.756 177.852C268.877 177.73 269.022 177.633 269.181 177.567C269.339 177.5 269.51 177.466 269.682 177.466C269.685 177.466 269.687 177.466 269.69 177.466H331.991C332.163 177.465 332.334 177.498 332.493 177.564C332.652 177.629 332.797 177.725 332.919 177.846C333.042 177.967 333.139 178.111 333.205 178.27C333.272 178.429 333.306 178.599 333.306 178.771C333.307 178.943 333.274 179.114 333.208 179.273C333.143 179.432 333.047 179.577 332.925 179.699C332.804 179.821 332.659 179.918 332.5 179.984C332.342 180.05 332.171 180.084 331.999 180.085C331.996 180.085 331.994 180.085 331.991 180.085Z" fill="#E6E6E6"/>
<path d="M290.279 157.171C297.196 147.798 309.008 143.756 316.132 134.561C317.788 132.47 319.072 130.109 319.925 127.583C320.59 125.341 321.077 123.05 321.383 120.732C322.123 116.059 322.997 111.079 327.094 108.116C332.489 104.214 339.538 105.171 345.701 106.06C345.877 106.081 346.054 106.033 346.195 105.925C346.336 105.818 346.43 105.66 346.457 105.485C346.483 105.309 346.441 105.131 346.338 104.986C346.236 104.842 346.081 104.743 345.907 104.71C340.244 103.893 334.186 103.092 328.799 105.564C326.359 106.641 324.303 108.432 322.902 110.702C321.751 112.757 320.966 114.997 320.581 117.322C320.112 119.701 319.841 122.114 319.337 124.487C318.832 126.993 317.891 129.391 316.557 131.572C313.634 136.254 309.247 139.784 304.817 142.966C299.255 146.961 293.33 150.736 289.206 156.325C288.686 157.03 289.755 157.881 290.279 157.171Z" fill="#3F3D56"/>
<path d="M342.212 97.1996L348.54 100.031L351.602 101.4C352.146 101.644 352.694 101.879 353.235 102.131C353.566 102.285 354.219 102.524 354.104 102.987C354.025 103.302 353.603 103.555 353.362 103.733C352.877 104.091 352.383 104.438 351.894 104.79L349.14 106.771L343.45 110.865C343.311 110.974 343.22 111.134 343.196 111.309C343.173 111.485 343.218 111.663 343.323 111.805C343.428 111.948 343.584 112.044 343.759 112.074C343.933 112.104 344.113 112.065 344.259 111.965C347.563 109.588 350.894 107.246 354.172 104.834C354.784 104.468 355.241 103.891 355.457 103.211C355.518 102.817 355.454 102.415 355.273 102.06C355.093 101.705 354.805 101.415 354.451 101.232C353.609 100.765 352.736 100.356 351.837 100.009L349.082 98.7766L342.754 95.9457C342.589 95.8809 342.406 95.8828 342.242 95.9509C342.078 96.019 341.947 96.1481 341.877 96.3108C341.807 96.4735 341.802 96.6571 341.865 96.823C341.927 96.9888 342.052 97.1238 342.212 97.1996Z" fill="#3F3D56"/>
<path d="M399.046 104.435H367.608C367.435 104.436 367.265 104.403 367.106 104.338C366.946 104.272 366.801 104.176 366.679 104.055C366.557 103.934 366.46 103.79 366.394 103.631C366.327 103.472 366.293 103.302 366.292 103.13C366.292 102.958 366.325 102.787 366.391 102.628C366.456 102.469 366.552 102.324 366.674 102.202C366.795 102.08 366.939 101.983 367.098 101.917C367.257 101.851 367.428 101.817 367.6 101.816C367.602 101.816 367.605 101.816 367.608 101.816H399.046C399.219 101.816 399.389 101.849 399.548 101.914C399.708 101.979 399.853 102.075 399.975 102.197C400.097 102.318 400.194 102.462 400.26 102.621C400.327 102.78 400.361 102.95 400.362 103.122C400.362 103.294 400.329 103.465 400.263 103.624C400.198 103.783 400.102 103.928 399.98 104.05C399.859 104.172 399.715 104.268 399.556 104.335C399.397 104.401 399.226 104.435 399.054 104.435C399.052 104.435 399.049 104.435 399.046 104.435Z" fill="#3F5902"/>
<path d="M314.417 198.515C321.334 207.889 333.146 211.931 340.27 221.126C341.926 223.217 343.209 225.577 344.063 228.104C344.727 230.346 345.215 232.636 345.521 234.954C346.261 239.628 347.135 244.607 351.232 247.57C356.627 251.472 363.676 250.516 369.838 249.627C370.014 249.606 370.192 249.654 370.333 249.761C370.474 249.869 370.568 250.027 370.595 250.202C370.621 250.377 370.579 250.556 370.476 250.701C370.374 250.845 370.219 250.944 370.045 250.977C364.381 251.794 358.324 252.595 352.937 250.122C350.497 249.046 348.441 247.254 347.04 244.985C345.889 242.929 345.103 240.689 344.719 238.365C344.25 235.986 343.979 233.572 343.475 231.2C342.97 228.694 342.029 226.296 340.695 224.115C337.772 219.433 333.385 215.903 328.955 212.721C323.393 208.726 317.468 204.95 313.344 199.362C312.824 198.656 313.893 197.805 314.417 198.515Z" fill="#3F3D56"/>
<path d="M366.35 258.488L372.678 255.657L375.739 254.287C376.284 254.044 376.832 253.808 377.372 253.556C377.704 253.402 378.357 253.163 378.242 252.701C378.163 252.386 377.741 252.132 377.5 251.954C377.015 251.596 376.521 251.25 376.032 250.898L373.278 248.917L367.588 244.823C367.449 244.713 367.358 244.554 367.334 244.378C367.31 244.203 367.356 244.025 367.461 243.882C367.566 243.739 367.722 243.643 367.897 243.613C368.071 243.583 368.251 243.623 368.397 243.723C371.7 246.099 375.032 248.441 378.309 250.854C378.922 251.22 379.379 251.797 379.595 252.477C379.656 252.87 379.592 253.273 379.411 253.628C379.231 253.983 378.943 254.272 378.589 254.455C377.747 254.923 376.874 255.331 375.975 255.678L373.22 256.911L366.892 259.742C366.727 259.807 366.543 259.805 366.38 259.736C366.216 259.668 366.085 259.539 366.015 259.377C365.945 259.214 365.94 259.03 366.003 258.865C366.065 258.699 366.19 258.564 366.35 258.488Z" fill="#3F3D56"/>
<path d="M423.184 255.129H391.745C391.398 255.13 391.065 254.993 390.818 254.749C390.572 254.504 390.433 254.172 390.431 253.825C390.429 253.478 390.566 253.145 390.81 252.898C391.054 252.651 391.387 252.512 391.734 252.51C391.738 252.51 391.742 252.51 391.745 252.51H423.184C423.531 252.509 423.865 252.645 424.111 252.89C424.358 253.134 424.497 253.466 424.499 253.813C424.5 254.161 424.364 254.494 424.119 254.741C423.875 254.987 423.543 255.127 423.196 255.129C423.192 255.129 423.188 255.129 423.184 255.129Z" fill="#3F5902"/>
<path d="M64.792 204.228C64.1967 205.407 63.3524 206.443 62.3174 207.264C61.2823 208.084 60.0813 208.671 58.7974 208.982C57.5135 209.293 56.1772 209.321 54.8812 209.066C53.5851 208.81 52.3601 208.275 51.2909 207.5L18.5475 223.076L16.3531 213.902L49.6989 194.258C51.1389 192.557 53.1535 191.442 55.3608 191.125C57.5682 190.809 59.8149 191.313 61.6753 192.542C63.5358 193.771 64.8806 195.639 65.455 197.793C66.0294 199.947 65.7935 202.237 64.792 204.228Z" fill="#FFB6B6"/>
<path d="M52.1743 156.916L29.1341 203.977L38.8712 199.565L45.648 196.492L49.0455 209.394C49.0455 209.394 46.7957 211.58 43.2479 214.452C38.1607 218.577 30.4138 224.127 22.8263 226.695C16.8875 228.707 11.0534 228.893 6.67218 225.142C-1.64399 218.022 6.48546 189.745 14.3416 168.215C19.6019 153.797 24.7346 142.411 24.7346 142.411C24.7346 127.205 54.255 105.34 59.7338 102.349C62.8626 100.646 63.7278 103.126 63.7278 103.126L46.5588 128.252L51.6916 149.058L53.1444 154.935L52.1743 156.916Z" fill="#3F5902"/>
</g>
<defs>
<clipPath id="clip0_344_2946">
<rect width="424" height="363" fill="white" transform="translate(0.5)"/>
</clipPath>
</defs>
</svg>
