<svg width="261" height="279" viewBox="0 0 261 279" fill="none" xmlns="http://www.w3.org/2000/svg">
<g clip-path="url(#clip0_344_2895)">
<path d="M165.426 158.295L53.037 187.158C49.2247 188.133 45.1804 187.559 41.7915 185.564C38.4025 183.568 35.9457 180.314 34.9599 176.514L0.970685 44.8803C-0.00644833 41.0783 0.56854 37.045 2.56951 33.6652C4.57048 30.2855 7.83402 27.8353 11.6442 26.8522L116.203 0L142.966 11.9481L176.099 140.267C177.076 144.069 176.501 148.103 174.5 151.482C172.499 154.862 169.236 157.312 165.426 158.295Z" fill="#F2F2F2"/>
<path d="M12.7098 30.9795C9.99652 31.6796 7.67249 33.4244 6.24755 35.8312C4.82261 38.238 4.41315 41.1102 5.109 43.8177L39.0982 175.451C39.8002 178.157 41.5498 180.475 43.9631 181.896C46.3765 183.317 49.2565 183.725 51.9713 183.031L164.36 154.168C167.073 153.468 169.397 151.724 170.822 149.317C172.247 146.91 172.657 144.038 171.961 141.33L139.341 14.9993L115.821 4.49902L12.7098 30.9795Z" fill="white"/>
<path d="M142.68 12.6272L125.286 17.0941C124.017 17.4202 122.669 17.2299 121.54 16.5651C120.411 15.9002 119.593 14.8153 119.266 13.5489L115.958 0.737052C115.943 0.680961 115.945 0.621935 115.962 0.566743C115.98 0.511551 116.013 0.462429 116.057 0.425007C116.101 0.387584 116.156 0.363378 116.213 0.355165C116.27 0.346952 116.329 0.355062 116.382 0.378569L142.728 12.0472C142.787 12.0731 142.836 12.1166 142.869 12.1717C142.901 12.2267 142.916 12.2906 142.911 12.3543C142.906 12.4181 142.881 12.4786 142.839 12.5275C142.798 12.5764 142.742 12.6113 142.68 12.6272Z" fill="#F2F2F2"/>
<path d="M133.529 125.039L82.3604 138.18C82.046 138.261 81.7188 138.279 81.3974 138.234C81.076 138.188 80.7666 138.08 80.4871 137.916C80.2076 137.751 79.9633 137.533 79.7682 137.274C79.5731 137.016 79.431 136.721 79.3501 136.407C79.2691 136.094 79.2509 135.768 79.2964 135.447C79.3419 135.127 79.4503 134.818 79.6153 134.539C79.7804 134.26 79.9989 134.017 80.2583 133.822C80.5178 133.628 80.8131 133.486 81.1275 133.405L132.296 120.264C132.611 120.184 132.938 120.165 133.259 120.211C133.581 120.256 133.89 120.364 134.17 120.529C134.449 120.694 134.694 120.911 134.889 121.17C135.084 121.429 135.226 121.723 135.307 122.037C135.388 122.351 135.406 122.677 135.36 122.997C135.315 123.318 135.207 123.626 135.041 123.905C134.876 124.184 134.658 124.428 134.398 124.622C134.139 124.817 133.844 124.958 133.529 125.039Z" fill="#CCCCCC"/>
<path d="M145.485 130.561L84.4409 146.237C83.806 146.4 83.1322 146.305 82.5676 145.973C82.0031 145.64 81.5941 145.098 81.4306 144.465C81.2671 143.832 81.3625 143.16 81.6958 142.597C82.0292 142.034 82.5731 141.626 83.208 141.463L144.252 125.786C144.886 125.623 145.56 125.719 146.124 126.051C146.688 126.384 147.096 126.926 147.26 127.559C147.423 128.192 147.328 128.863 146.995 129.426C146.662 129.989 146.119 130.397 145.485 130.561Z" fill="#CCCCCC"/>
<path d="M61.4761 154.007C66.3014 154.007 70.2132 150.106 70.2132 145.294C70.2132 140.482 66.3014 136.581 61.4761 136.581C56.6508 136.581 52.7391 140.482 52.7391 145.294C52.7391 150.106 56.6508 154.007 61.4761 154.007Z" fill="#E6E6E6"/>
<path d="M128.089 102.236L60.1311 119.682C58.1672 120.183 56.0838 119.888 54.338 118.86C52.5923 117.831 51.3268 116.155 50.8192 114.197L36.5778 59.0228C36.0746 57.0641 36.371 54.9864 37.402 53.2454C38.4329 51.5044 40.1143 50.2423 42.0771 49.7361L110.035 32.2902C111.999 31.7884 114.082 32.0839 115.828 33.1121C117.573 34.1403 118.839 35.8171 119.347 37.7746L133.588 92.949C134.091 94.9076 133.795 96.9853 132.764 98.7263C131.733 100.467 130.051 101.729 128.089 102.236Z" fill="white"/>
<path d="M128.089 102.236L60.1311 119.682C58.1672 120.183 56.0838 119.888 54.338 118.86C52.5923 117.831 51.3268 116.155 50.8192 114.197L36.5778 59.0228C36.0746 57.0641 36.371 54.9864 37.402 53.2454C38.4329 51.5044 40.1143 50.2423 42.0771 49.7361L110.035 32.2902C111.999 31.7884 114.082 32.0839 115.828 33.1121C117.573 34.1403 118.839 35.8171 119.347 37.7746L133.588 92.949C134.091 94.9076 133.795 96.9853 132.764 98.7263C131.733 100.467 130.051 101.729 128.089 102.236ZM42.3014 50.605C40.5695 51.0517 39.086 52.1653 38.1763 53.7014C37.2666 55.2376 37.0051 57.0709 37.4491 58.7991L51.6904 113.974C52.1384 115.701 53.255 117.18 54.7953 118.087C56.3357 118.995 58.1739 119.255 59.9069 118.813L127.864 101.367C129.596 100.92 131.08 99.8065 131.989 98.2703C132.899 96.7341 133.161 94.9008 132.717 93.1726L118.475 37.9982C118.027 36.271 116.911 34.7915 115.37 33.8843C113.83 32.9771 111.992 32.7163 110.259 33.1591L42.3014 50.605Z" fill="#E6E6E6"/>
<path d="M106.587 50.8419L72.2897 59.6467C71.9899 59.7301 71.6695 59.697 71.3932 59.5539C71.1169 59.4108 70.9054 59.1684 70.8015 58.8757C70.7531 58.7228 70.7365 58.5617 70.7526 58.4022C70.7687 58.2427 70.8173 58.0882 70.8953 57.948C70.9733 57.8078 71.0791 57.685 71.2062 57.5869C71.3334 57.4889 71.4793 57.4177 71.635 57.3777L106.547 48.415C107.958 49.1277 107.587 50.5852 106.587 50.8419Z" fill="#F2F2F2"/>
<path d="M108.136 56.8419L73.8383 65.6467C73.5385 65.7301 73.218 65.697 72.9418 65.5539C72.6655 65.4107 72.454 65.1684 72.3501 64.8757C72.3017 64.7228 72.2851 64.5617 72.3012 64.4022C72.3173 64.2427 72.3658 64.0882 72.4438 63.948C72.5218 63.8078 72.6276 63.6849 72.7548 63.5869C72.882 63.4888 73.0279 63.4177 73.1835 63.3777L108.096 54.415C109.506 55.1277 109.136 56.5852 108.136 56.8419Z" fill="#F2F2F2"/>
<path d="M67.3058 70.9659L56.8386 73.653C56.4968 73.7404 56.1341 73.689 55.8302 73.51C55.5264 73.331 55.3061 73.0391 55.2178 72.6984L52.0381 60.3798C51.9505 60.0388 52.0021 59.6772 52.1815 59.3741C52.361 59.0711 52.6537 58.8514 52.9953 58.7633L63.4625 56.0762C63.8044 55.9889 64.167 56.0404 64.4708 56.2194C64.7746 56.3983 64.9949 56.6901 65.0834 57.0308L68.263 69.3495C68.3506 69.6904 68.299 70.0521 68.1196 70.3551C67.9401 70.6582 67.6475 70.8778 67.3058 70.9659Z" fill="#E6E6E6"/>
<path d="M111.207 69.1516L58.8627 82.5893C58.5629 82.6727 58.2424 82.6396 57.9662 82.4964C57.6899 82.3533 57.4784 82.111 57.3745 81.8183C57.3261 81.6654 57.3095 81.5043 57.3256 81.3448C57.3417 81.1853 57.3903 81.0308 57.4682 80.8906C57.5462 80.7504 57.6521 80.6275 57.7792 80.5295C57.9064 80.4314 58.0523 80.3603 58.2079 80.3203L111.167 66.7246C112.578 67.4373 112.207 68.8949 111.207 69.1516Z" fill="#F2F2F2"/>
<path d="M112.756 75.1531L60.4118 88.5907C60.112 88.6742 59.7915 88.641 59.5153 88.4979C59.239 88.3548 59.0275 88.1124 58.9236 87.8198C58.8752 87.6669 58.8586 87.5058 58.8747 87.3463C58.8908 87.1868 58.9393 87.0322 59.0173 86.892C59.0953 86.7518 59.2011 86.629 59.3283 86.5309C59.4555 86.4329 59.6014 86.3617 59.757 86.3217L112.717 72.7261C114.127 73.4387 113.756 74.8963 112.756 75.1531Z" fill="#F2F2F2"/>
<path d="M114.304 81.1507L61.9598 94.5883C61.66 94.6717 61.3395 94.6386 61.0633 94.4955C60.787 94.3524 60.5755 94.11 60.4716 93.8173C60.4232 93.6644 60.4066 93.5033 60.4227 93.3438C60.4388 93.1843 60.4874 93.0298 60.5654 92.8896C60.6433 92.7494 60.7492 92.6266 60.8763 92.5285C61.0035 92.4305 61.1494 92.3593 61.3051 92.3193L114.265 78.7236C115.675 79.4363 115.304 80.8939 114.304 81.1507Z" fill="#F2F2F2"/>
<path d="M115.853 87.1516L63.5088 100.589C63.2089 100.673 62.8885 100.64 62.6122 100.496C62.336 100.353 62.1245 100.111 62.0206 99.8183C61.9722 99.6654 61.9555 99.5043 61.9717 99.3448C61.9878 99.1853 62.0363 99.0307 62.1143 98.8905C62.1923 98.7504 62.2981 98.6275 62.4253 98.5295C62.5525 98.4314 62.6983 98.3602 62.854 98.3203L115.814 84.7246C117.224 85.4373 116.853 86.8949 115.853 87.1516Z" fill="#F2F2F2"/>
<path d="M117.401 93.1497L65.0569 106.587C64.7571 106.671 64.4367 106.638 64.1604 106.494C63.8841 106.351 63.6726 106.109 63.5687 105.816C63.5203 105.663 63.5037 105.502 63.5198 105.343C63.5359 105.183 63.5845 105.029 63.6625 104.889C63.7405 104.748 63.8463 104.626 63.9734 104.528C64.1006 104.429 64.2465 104.358 64.4022 104.318L117.362 90.7227C118.772 91.4353 118.401 92.8929 117.401 93.1497Z" fill="#F2F2F2"/>
<path d="M62.1207 148.348C61.9305 148.397 61.7293 148.383 61.5476 148.309L61.5364 148.304L59.1562 147.298C59.0458 147.251 58.9456 147.183 58.8615 147.098C58.7773 147.013 58.7109 146.912 58.6659 146.801C58.621 146.69 58.5984 146.571 58.5995 146.452C58.6005 146.332 58.6252 146.214 58.6722 146.104C58.7191 145.994 58.7874 145.894 58.873 145.81C58.9586 145.726 59.06 145.66 59.1713 145.616C59.2826 145.571 59.4016 145.549 59.5215 145.55C59.6415 145.551 59.76 145.576 59.8703 145.623L61.4126 146.277L63.4336 141.536C63.4805 141.426 63.5486 141.326 63.6341 141.242C63.7196 141.159 63.8208 141.093 63.9318 141.048C64.0429 141.003 64.1617 140.981 64.2815 140.982C64.4013 140.983 64.5197 141.008 64.6299 141.054L64.6181 141.086L64.6307 141.054C64.8532 141.149 65.0289 141.328 65.1193 141.552C65.2098 141.775 65.2075 142.026 65.1131 142.248L62.7353 147.823C62.6802 147.951 62.5961 148.065 62.4896 148.156C62.3831 148.247 62.2571 148.312 62.1212 148.347L62.1207 148.348Z" fill="white"/>
<path d="M208.533 208.457H92.4783C88.5427 208.453 84.7696 206.892 81.9867 204.116C79.2039 201.341 77.6385 197.578 77.634 193.653V57.7254C77.6385 53.8005 79.2039 50.0376 81.9867 47.2623C84.7696 44.4869 88.5427 42.9258 92.4783 42.9214H200.449L223.378 61.1478V193.653C223.373 197.578 221.808 201.341 219.025 204.116C216.242 206.892 212.469 208.453 208.533 208.457Z" fill="#E6E6E6"/>
<path d="M92.4782 47.1836C89.6756 47.1867 86.9887 48.2985 85.0069 50.2748C83.0252 52.2512 81.9104 54.9308 81.9073 57.7259V193.654C81.9104 196.449 83.0252 199.128 85.0069 201.105C86.9887 203.081 89.6756 204.193 92.4782 204.196H208.533C211.336 204.193 214.023 203.081 216.005 201.105C217.986 199.128 219.101 196.449 219.104 193.654V63.2014L198.954 47.1836H92.4782Z" fill="white"/>
<path d="M185.961 86.7074H133.122C132.467 86.7074 131.838 86.4476 131.374 85.9853C130.911 85.523 130.65 84.8959 130.65 84.2421C130.65 83.5883 130.911 82.9612 131.374 82.4989C131.838 82.0366 132.467 81.7769 133.122 81.7769H185.961C186.616 81.7769 187.245 82.0366 187.709 82.4989C188.172 82.9612 188.433 83.5883 188.433 84.2421C188.433 84.8959 188.172 85.523 187.709 85.9853C187.245 86.4476 186.616 86.7074 185.961 86.7074Z" fill="#3F5902"/>
<path d="M196.157 95.0277H133.122C132.467 95.0268 131.839 94.7667 131.377 94.3045C130.914 93.8422 130.654 93.2157 130.654 92.5624C130.654 91.9092 130.914 91.2826 131.377 90.8204C131.839 90.3582 132.467 90.0981 133.122 90.0972H196.157C196.482 90.0967 196.804 90.1602 197.104 90.2839C197.405 90.4076 197.678 90.5891 197.908 90.8181C198.137 91.047 198.32 91.3189 198.444 91.6182C198.569 91.9176 198.633 92.2384 198.633 92.5624C198.633 92.8864 198.569 93.2073 198.444 93.5066C198.32 93.8059 198.137 94.0779 197.908 94.3068C197.678 94.5358 197.405 94.7173 197.104 94.841C196.804 94.9647 196.482 95.0281 196.157 95.0277Z" fill="#3F5902"/>
<path d="M185.961 119.062H133.124C132.469 119.063 131.84 119.322 131.377 119.785C130.913 120.247 130.653 120.874 130.653 121.528C130.653 122.181 130.913 122.808 131.377 123.271C131.84 123.733 132.469 123.993 133.124 123.993H185.961C186.617 123.993 187.245 123.733 187.709 123.271C188.172 122.808 188.433 122.181 188.433 121.528C188.433 120.874 188.172 120.247 187.709 119.785C187.245 119.322 186.617 119.062 185.961 119.062Z" fill="#CCCCCC"/>
<path d="M196.158 127.384H133.124C132.469 127.384 131.84 127.644 131.377 128.106C130.913 128.569 130.653 129.196 130.653 129.849C130.653 130.503 130.913 131.13 131.377 131.592C131.84 132.055 132.469 132.314 133.124 132.314H196.158C196.814 132.314 197.443 132.055 197.906 131.592C198.37 131.13 198.63 130.503 198.63 129.849C198.63 129.196 198.37 128.569 197.906 128.106C197.443 127.644 196.814 127.384 196.158 127.384Z" fill="#CCCCCC"/>
<path d="M185.961 161.282H133.122C132.467 161.282 131.838 161.022 131.374 160.56C130.911 160.097 130.65 159.47 130.65 158.816C130.65 158.163 130.911 157.535 131.374 157.073C131.838 156.611 132.467 156.351 133.122 156.351H185.961C186.616 156.351 187.245 156.611 187.709 157.073C188.172 157.535 188.433 158.163 188.433 158.816C188.433 159.47 188.172 160.097 187.709 160.56C187.245 161.022 186.616 161.282 185.961 161.282Z" fill="#CCCCCC"/>
<path d="M196.157 169.602H133.122C132.467 169.602 131.839 169.341 131.377 168.879C130.914 168.417 130.654 167.79 130.654 167.137C130.654 166.484 130.914 165.857 131.377 165.395C131.839 164.933 132.467 164.673 133.122 164.672H196.157C196.482 164.671 196.804 164.735 197.104 164.859C197.405 164.982 197.678 165.164 197.908 165.393C198.137 165.622 198.32 165.894 198.444 166.193C198.569 166.492 198.633 166.813 198.633 167.137C198.633 167.461 198.569 167.782 198.444 168.081C198.32 168.381 198.137 168.653 197.908 168.882C197.678 169.11 197.405 169.292 197.104 169.416C196.804 169.539 196.482 169.603 196.157 169.602Z" fill="#CCCCCC"/>
<path d="M111.119 97.1157C115.945 97.1157 119.856 93.2146 119.856 88.4023C119.856 83.5901 115.945 79.689 111.119 79.689C106.294 79.689 102.382 83.5901 102.382 88.4023C102.382 93.2146 106.294 97.1157 111.119 97.1157Z" fill="#3F5902"/>
<path d="M110.253 91.726C110.057 91.7264 109.866 91.663 109.708 91.5454L109.699 91.5381L107.645 89.9716C107.55 89.899 107.47 89.8083 107.41 89.7048C107.349 89.6013 107.31 89.487 107.294 89.3684C107.278 89.2497 107.286 89.1292 107.317 89.0135C107.348 88.8979 107.402 88.7895 107.475 88.6945C107.548 88.5996 107.639 88.5199 107.743 88.4601C107.847 88.4003 107.961 88.3615 108.08 88.3459C108.199 88.3304 108.32 88.3384 108.436 88.3695C108.552 88.4006 108.66 88.4542 108.756 88.5272L110.086 89.5443L113.228 85.4553C113.301 85.3605 113.392 85.2809 113.496 85.2212C113.599 85.1614 113.714 85.1226 113.833 85.107C113.951 85.0913 114.072 85.0991 114.188 85.13C114.304 85.1609 114.412 85.2142 114.507 85.2869L114.488 85.3141L114.508 85.2871C114.7 85.434 114.825 85.6509 114.857 85.89C114.888 86.1292 114.824 86.3711 114.677 86.5626L110.98 91.3701C110.894 91.4808 110.785 91.5705 110.659 91.632C110.533 91.6936 110.394 91.7254 110.254 91.725L110.253 91.726Z" fill="white"/>
<path d="M120.754 125.688C120.755 126.833 120.529 127.966 120.09 129.024C119.651 130.081 119.008 131.042 118.197 131.851C117.386 132.661 116.423 133.303 115.362 133.741C114.302 134.179 113.166 134.405 112.019 134.405C111.944 134.406 111.868 134.403 111.794 134.396C110.076 134.352 108.409 133.804 107.002 132.82C105.595 131.836 104.51 130.46 103.883 128.864C103.256 127.269 103.115 125.524 103.478 123.849C103.84 122.173 104.69 120.642 105.921 119.446C107.151 118.25 108.709 117.442 110.397 117.124C112.086 116.806 113.831 116.992 115.414 117.659C116.998 118.325 118.349 119.442 119.299 120.87C120.248 122.299 120.755 123.975 120.754 125.688Z" fill="#CCCCCC"/>
<path d="M111.119 171.69C115.945 171.69 119.856 167.789 119.856 162.977C119.856 158.164 115.945 154.263 111.119 154.263C106.294 154.263 102.382 158.164 102.382 162.977C102.382 167.789 106.294 171.69 111.119 171.69Z" fill="#CCCCCC"/>
<path d="M222.931 61.7347H204.97C203.659 61.7347 202.401 61.2152 201.474 60.2906C200.547 59.3659 200.026 58.1118 200.026 56.8041V43.5743C200.026 43.5163 200.043 43.4596 200.073 43.4105C200.104 43.3615 200.148 43.3221 200.201 43.2968C200.253 43.2716 200.311 43.2616 200.369 43.268C200.427 43.2743 200.482 43.2968 200.527 43.3327L223.123 61.185C223.173 61.2247 223.21 61.279 223.228 61.3405C223.246 61.4019 223.244 61.4674 223.223 61.5278C223.202 61.5882 223.163 61.6406 223.11 61.6777C223.058 61.7148 222.995 61.7347 222.931 61.7347Z" fill="#CCCCCC"/>
<path d="M120.754 125.688C120.755 126.833 120.529 127.966 120.09 129.024C119.651 130.081 119.008 131.042 118.197 131.851C117.386 132.661 116.422 133.303 115.362 133.741C114.302 134.179 113.166 134.405 112.019 134.405C111.944 134.406 111.868 134.403 111.794 134.396C110.665 131.588 110.23 128.551 110.525 125.54C110.82 122.53 111.837 119.634 113.49 117.098C115.522 117.445 117.366 118.498 118.695 120.07C120.024 121.642 120.754 123.632 120.754 125.688Z" fill="#3F5902"/>
<path d="M130.65 121.53C130.652 120.876 130.913 120.249 131.376 119.786C131.84 119.324 132.469 119.064 133.124 119.062H146.291C147.06 120.622 147.606 122.282 147.915 123.993H133.124C132.469 123.993 131.841 123.733 131.377 123.271C130.913 122.81 130.652 122.183 130.65 121.53Z" fill="#3F5902"/>
<path d="M148.221 127.384C148.221 129.049 148.001 130.707 147.564 132.314H133.124C132.469 132.314 131.84 132.055 131.377 131.592C130.913 131.13 130.653 130.503 130.653 129.849C130.653 129.196 130.913 128.569 131.377 128.106C131.84 127.644 132.469 127.384 133.124 127.384H148.221Z" fill="#3F5902"/>
<path d="M180.798 157.79C180.425 158.399 179.825 158.836 179.129 159.004C178.433 159.172 177.699 159.058 177.088 158.686L145.598 139.531C145.296 139.346 145.032 139.105 144.823 138.819C144.614 138.534 144.464 138.21 144.381 137.866C144.297 137.523 144.282 137.166 144.337 136.817C144.392 136.468 144.515 136.133 144.699 135.831C144.884 135.529 145.126 135.267 145.413 135.058C145.699 134.85 146.024 134.7 146.368 134.617C146.713 134.533 147.07 134.519 147.42 134.573C147.77 134.628 148.106 134.751 148.409 134.935L179.899 154.09C180.51 154.462 180.948 155.061 181.117 155.755C181.285 156.448 181.17 157.18 180.798 157.79Z" fill="#3F3D56"/>
<path d="M149.308 138.634C147.084 142.27 143.829 145.167 139.955 146.958C136.08 148.749 131.76 149.354 127.541 148.696C123.322 148.039 119.393 146.148 116.251 143.264C113.109 140.379 110.895 136.63 109.89 132.491C108.884 128.352 109.132 124.009 110.602 120.01C112.072 116.011 114.698 112.537 118.147 110.027C121.597 107.516 125.716 106.083 129.982 105.907C134.249 105.731 138.472 106.82 142.118 109.038C147.002 112.016 150.501 116.805 151.849 122.354C153.197 127.902 152.283 133.757 149.308 138.634ZM117.05 119.012C115.382 121.738 114.562 124.897 114.695 128.089C114.827 131.28 115.905 134.361 117.793 136.941C119.681 139.521 122.294 141.485 125.301 142.584C128.308 143.684 131.575 143.869 134.687 143.117C137.8 142.365 140.619 140.709 142.789 138.359C144.958 136.009 146.38 133.071 146.874 129.915C147.369 126.759 146.914 123.528 145.567 120.63C144.22 117.732 142.042 115.297 139.307 113.634C135.639 111.408 131.236 110.725 127.063 111.733C122.891 112.741 119.289 115.359 117.05 119.012Z" fill="#3F3D56"/>
<path d="M218.487 130.873C224.589 130.873 229.535 125.94 229.535 119.855C229.535 113.77 224.589 108.837 218.487 108.837C212.385 108.837 207.439 113.77 207.439 119.855C207.439 125.94 212.385 130.873 218.487 130.873Z" fill="#A0616A"/>
<path d="M217.773 181.625C217.56 180.963 217.49 180.263 217.566 179.572C217.643 178.881 217.866 178.214 218.219 177.615C218.573 177.015 219.049 176.497 219.617 176.094C220.186 175.691 220.833 175.413 221.517 175.277C221.733 175.234 221.953 175.207 222.173 175.196L233.811 156.568L223.18 146.489C222.774 146.104 222.448 145.643 222.222 145.132C221.996 144.62 221.873 144.069 221.862 143.511C221.85 142.952 221.949 142.396 222.154 141.876C222.359 141.356 222.665 140.881 223.055 140.48C223.445 140.078 223.911 139.757 224.425 139.536C224.94 139.315 225.494 139.198 226.054 139.192C226.615 139.185 227.171 139.289 227.69 139.499C228.21 139.708 228.683 140.017 229.082 140.41L243.76 154.843L243.789 154.879C244.243 155.568 244.463 156.385 244.414 157.208C244.366 158.031 244.053 158.816 243.522 159.448L227.216 178.681C227.265 178.835 227.305 178.992 227.337 179.15C227.474 179.832 227.464 180.535 227.309 181.213C227.154 181.891 226.857 182.529 226.438 183.084C226.018 183.64 225.486 184.101 224.875 184.437C224.265 184.773 223.59 184.976 222.895 185.034C222.755 185.046 222.615 185.053 222.476 185.053C221.43 185.048 220.412 184.714 219.567 184.099C218.723 183.483 218.095 182.618 217.773 181.625Z" fill="#A0616A"/>
<path d="M200.291 273.201L194.776 273.201L192.152 251.987L200.292 251.988L200.291 273.201Z" fill="#A0616A"/>
<path d="M201.697 278.534L183.915 278.533V278.309C183.915 277.402 184.094 276.505 184.442 275.667C184.79 274.83 185.3 274.069 185.942 273.428C186.585 272.787 187.348 272.278 188.188 271.932C189.027 271.585 189.927 271.406 190.836 271.406L201.697 271.407L201.697 278.534Z" fill="#2F2E41"/>
<path d="M255.105 265.597L250.366 268.411L237.229 251.523L244.222 247.37L255.105 265.597Z" fill="#A0616A"/>
<path d="M259.048 269.461L243.769 278.533L243.654 278.34C243.189 277.561 242.882 276.699 242.752 275.802C242.621 274.905 242.669 273.991 242.892 273.112C243.115 272.234 243.51 271.407 244.054 270.681C244.597 269.954 245.279 269.342 246.06 268.878L255.392 263.337L259.048 269.461Z" fill="#2F2E41"/>
<path d="M191.457 263.859C187.762 220.476 185.565 180.174 199.07 163.733L199.174 163.605L221.902 172.672L221.939 172.753C222.016 172.92 229.575 189.501 227.811 200.654L233.418 226.372L251.697 256.896C251.844 257.141 251.937 257.415 251.97 257.7C252.002 257.984 251.974 258.272 251.887 258.545C251.8 258.817 251.656 259.068 251.464 259.281C251.272 259.494 251.037 259.664 250.774 259.779L242.831 263.264C242.382 263.459 241.879 263.486 241.412 263.341C240.945 263.195 240.547 262.887 240.29 262.472L220.406 230.137L209.174 205.335C209.113 205.2 209.01 205.09 208.879 205.02C208.749 204.95 208.599 204.924 208.452 204.948C208.306 204.971 208.172 205.042 208.07 205.149C207.968 205.256 207.904 205.394 207.888 205.541L201.663 263.903C201.611 264.399 201.376 264.858 201.004 265.192C200.633 265.525 200.15 265.709 199.65 265.709H193.475C192.968 265.706 192.48 265.515 192.107 265.173C191.734 264.831 191.502 264.362 191.457 263.859Z" fill="#2F2E41"/>
<path d="M199.146 164.077L199.038 164.026L199.021 163.907C198.172 157.981 199.177 151.396 202.008 144.337C203.403 140.881 205.997 138.041 209.316 136.333C212.635 134.625 216.459 134.163 220.092 135.031C222.184 135.545 224.146 136.487 225.855 137.797C227.563 139.107 228.98 140.757 230.015 142.641C231.037 144.506 231.66 146.563 231.844 148.681C232.028 150.799 231.768 152.931 231.082 154.944C227.514 165.352 222.884 175.09 222.838 175.187L222.741 175.39L199.146 164.077Z" fill="#3F5902"/>
<path d="M174.349 149.317C174.896 148.886 175.529 148.575 176.205 148.405C176.881 148.235 177.585 148.209 178.272 148.329C178.959 148.45 179.612 148.713 180.19 149.103C180.767 149.493 181.255 150 181.623 150.591C181.738 150.778 181.84 150.974 181.928 151.176L203.499 155.524L209.243 142.064C209.462 141.55 209.782 141.084 210.183 140.693C210.584 140.303 211.058 139.995 211.579 139.789C212.1 139.582 212.656 139.481 213.217 139.49C213.777 139.499 214.33 139.619 214.844 139.842C215.357 140.066 215.821 140.389 216.209 140.792C216.597 141.195 216.901 141.672 217.103 142.193C217.306 142.714 217.403 143.27 217.388 143.829C217.374 144.387 217.249 144.938 217.02 145.448L208.604 164.213L208.58 164.254C208.092 164.919 207.402 165.41 206.612 165.653C205.822 165.896 204.975 165.879 204.196 165.604L180.421 157.107C180.293 157.206 180.16 157.299 180.023 157.385C179.43 157.751 178.766 157.988 178.075 158.08C177.384 158.173 176.681 158.119 176.013 157.922C175.344 157.724 174.725 157.389 174.195 156.936C173.666 156.483 173.239 155.924 172.941 155.296C172.88 155.169 172.825 155.04 172.777 154.91C172.415 153.932 172.372 152.864 172.654 151.859C172.936 150.855 173.53 149.965 174.349 149.317Z" fill="#A0616A"/>
<path d="M258.399 131.655C257.335 129.774 255.785 128.052 253.735 127.357C251.088 126.459 248.222 127.415 245.5 128.053C243.403 128.545 241.212 128.846 239.099 128.431C236.985 128.016 234.947 126.789 233.985 124.867C232.57 122.039 233.762 118.667 233.676 115.508C233.632 113.788 233.197 112.101 232.404 110.574C231.61 109.046 230.48 107.718 229.097 106.689C227.715 105.661 226.116 104.959 224.422 104.636C222.727 104.313 220.982 104.379 219.316 104.827C216.71 104.076 214.351 104.007 212.739 106.005C210.71 106.005 208.765 106.809 207.331 108.239C205.897 109.669 205.092 111.609 205.092 113.631H212.404C212.057 115.491 212.453 117.412 213.508 118.984C214.798 120.875 217.043 122.243 217.475 124.49C217.894 126.667 216.41 128.733 214.853 130.316C213.296 131.899 211.49 133.467 211.004 135.63C210.707 137.273 211.045 138.966 211.951 140.37C212.855 141.756 213.977 142.988 215.273 144.019C221.114 149.01 228.056 152.552 235.532 154.355C240.797 155.62 246.555 155.947 251.443 153.622C253.398 152.691 255.141 151.37 256.562 149.74C257.984 148.11 259.054 146.206 259.706 144.145C260.358 142.085 260.579 139.913 260.354 137.765C260.13 135.616 259.464 133.536 258.399 131.655Z" fill="#2F2E41"/>
<path d="M260.05 279H174.583C174.464 279 174.35 278.952 174.265 278.868C174.181 278.784 174.133 278.67 174.133 278.551C174.133 278.432 174.181 278.318 174.265 278.234C174.35 278.15 174.464 278.103 174.583 278.103H260.05C260.169 278.103 260.284 278.15 260.368 278.234C260.453 278.318 260.5 278.432 260.5 278.551C260.5 278.67 260.453 278.784 260.368 278.868C260.284 278.952 260.169 279 260.05 279Z" fill="#CCCCCC"/>
</g>
<defs>
<clipPath id="clip0_344_2895">
<rect width="260" height="279" fill="white" transform="translate(0.5)"/>
</clipPath>
</defs>
</svg>
