<svg width="721" height="289" viewBox="0 0 721 289" fill="none" xmlns="http://www.w3.org/2000/svg">
<g clip-path="url(#clip0_344_2783)">
<path d="M181.144 49.309H277.275V0.567383H181.144V49.309Z" fill="white"/>
<path d="M277.841 49.8753H180.577V0.000488281H277.841V49.8753ZM181.144 49.309H277.276V0.566803H181.144V49.309Z" fill="#3F3D56"/>
<path d="M208.196 16.9688H198.403V17.7861H208.196V16.9688Z" fill="#3F5902"/>
<path d="M221.253 16.9688H211.46V17.7861H221.253V16.9688Z" fill="#3F5902"/>
<path d="M240.227 24.5293H230.434V25.3466H240.227V24.5293Z" fill="#3F5902"/>
<path d="M253.487 24.5293H243.694V25.3466H253.487V24.5293Z" fill="#3F5902"/>
<path d="M253.487 16.9688H224.721V17.7861H253.487V16.9688Z" fill="#3F5902"/>
<path d="M227.169 24.5293H198.403V25.3466H227.169V24.5293Z" fill="#3F5902"/>
<path d="M227.169 32.0898H198.403V32.9072H227.169V32.0898Z" fill="#3F5902"/>
<path d="M253.487 32.0898H233.494V32.9072H253.487V32.0898Z" fill="#3F5902"/>
<path d="M193.767 17.7864L187.926 11.9359L193.767 6.08496L194.935 7.25581L190.263 11.9359L194.935 16.6155L193.767 17.7864Z" fill="#3F5902"/>
<path d="M266.709 44.0703L265.54 42.9L270.212 38.2204L265.54 33.5408L266.709 32.3711L272.549 38.2204L266.709 44.0703Z" fill="#3F5902"/>
<path d="M260.559 32.0893L257.1 43.52L258.682 44.0001L262.14 32.5694L260.559 32.0893Z" fill="#3F5902"/>
<path d="M211.847 274.855H1.05387C0.907139 274.855 0.766405 274.796 0.662648 274.693C0.558892 274.589 0.50061 274.448 0.50061 274.301C0.50061 274.154 0.558892 274.013 0.662648 273.909C0.766405 273.805 0.907139 273.747 1.05387 273.747H211.847C211.994 273.747 212.135 273.805 212.238 273.909C212.342 274.013 212.4 274.154 212.4 274.301C212.4 274.448 212.342 274.589 212.238 274.693C212.135 274.796 211.994 274.855 211.847 274.855Z" fill="#F2F2F2"/>
<path d="M105.145 255.585L105.851 263.704C105.851 263.704 110.23 274.047 104.338 274.025C98.4464 274.002 96.8298 272.963 96.8298 272.963C96.8298 272.963 94.474 272.659 94.1741 273.543C93.8743 274.426 73.9878 275.087 74.6008 268.894C75.2138 262.701 93.7974 257.165 93.7974 257.165L95.5855 251.861L105.145 255.585Z" fill="#090814"/>
<path d="M167.394 76.017L169.257 72.7515L159.941 70.8853L159.009 75.5504L160.407 79.2824L167.394 76.017Z" fill="#3F5902"/>
<path opacity="0.2" d="M167.394 76.017L169.257 72.7515L159.941 70.8853L159.009 75.5504L160.407 79.2824L167.394 76.017Z" fill="black"/>
<path d="M162.036 73.9177C168.725 73.9177 174.147 68.487 174.147 61.7879C174.147 55.0889 168.725 49.6582 162.036 49.6582C155.348 49.6582 149.925 55.0889 149.925 61.7879C149.925 68.487 155.348 73.9177 162.036 73.9177Z" fill="#FFB9B9"/>
<path d="M151.788 61.7876L142.006 78.1159L156.447 86.5136L163.9 69.2522L151.788 61.7876Z" fill="#FFB9B9"/>
<path d="M150.857 80.9157L138.28 75.7812C138.28 75.7812 119.182 79.0506 117.317 85.1143C115.451 91.1781 115.453 140.164 115.453 140.164C115.453 140.164 110.795 152.294 117.317 152.76C117.317 152.76 115.453 155.559 117.317 156.026C119.18 156.492 138.277 156.026 145.73 158.359C153.183 160.692 168.089 162.557 168.089 160.225V156.026C168.089 156.026 171.349 152.761 169.486 147.16C167.624 141.56 165.294 129.432 165.294 129.432C165.294 129.432 179.269 98.6415 177.871 94.9106C176.474 91.1797 159.413 79.6379 159.413 79.6379L150.857 80.9157Z" fill="#3F5902"/>
<path d="M121.977 140.164L122.443 143.896L128.964 135.965H126.635L121.977 140.164Z" fill="#FFB9B9"/>
<path d="M150.857 80.9157L137.349 77.6503C137.349 77.6503 134.553 75.3174 134.553 72.5186C134.553 69.7197 138.746 65.5206 141.541 62.7217C141.784 62.4715 142.076 62.2734 142.398 62.1394C142.72 62.0053 143.066 61.9382 143.415 61.942C146.181 61.9188 149.536 65.5527 149.536 65.5527L145.814 71.7716L145.648 72.0487L150.857 80.9157Z" fill="#3F5902"/>
<path d="M161.267 75.3443L169.254 72.751C169.254 72.751 171.816 82.7806 169.021 83.2477C166.226 83.7148 150.855 82.3146 150.855 82.3146L161.267 75.3443Z" fill="#3F5902"/>
<path d="M118.25 153.69L112.194 188.212C112.194 188.212 109.865 192.411 110.797 194.277C111.729 196.143 112.194 196.143 110.797 197.077C109.399 198.01 107.537 197.076 108.002 199.409C108.281 200.792 108.437 202.197 108.468 203.608L95.4251 248.394C95.4251 248.394 87.0404 252.126 93.0958 254.459C99.1513 256.792 105.207 258.658 106.604 256.325C108.002 253.993 106.604 251.194 106.604 251.194L128.031 199.876C128.031 199.876 131.291 195.211 131.291 192.411C131.291 189.612 142.007 169.555 142.007 169.555C142.007 169.555 142.473 189.614 142.939 191.015C143.405 192.416 142.007 195.214 142.007 197.08C142.007 198.946 141.075 198.946 142.007 199.879C142.939 200.812 142.939 211.542 142.939 211.542C142.939 211.542 137.351 253.063 140.61 253.53C143.868 253.996 153.186 253.063 153.186 251.197C153.227 250.711 153.114 250.223 152.863 249.805C152.613 249.386 152.237 249.057 151.789 248.864L157.844 213.408C157.59 211.993 157.752 210.534 158.31 209.21C159.242 207.343 159.242 207.343 159.242 206.41C159.242 205.477 158.776 205.01 159.242 204.544C159.546 204.141 159.71 203.649 159.708 203.144C159.708 203.144 158.776 200.345 159.242 199.879C159.708 199.413 169.955 164.423 166.695 160.224C163.434 156.026 118.25 153.69 118.25 153.69Z" fill="#090814"/>
<path d="M141.075 252.13L137.815 259.595C137.815 259.595 130.362 267.992 135.952 269.858C141.541 271.725 143.405 271.258 143.405 271.258C143.405 271.258 145.734 271.725 145.734 272.658C145.734 273.591 164.366 280.589 165.762 274.524C167.158 268.459 151.322 257.263 151.322 257.263V251.661L141.075 252.13Z" fill="#090814"/>
<path d="M150.24 65.1081C150.988 65.0577 151.487 64.2409 151.694 63.464C151.901 62.6871 151.954 61.8355 152.376 61.1677C153.534 59.3391 156.545 60.0772 157.768 58.2974C158.52 57.2024 158.363 55.4204 159.448 54.7239C160.134 54.2839 161.008 54.5105 161.763 54.787C164.69 55.8663 167.393 57.4785 169.735 59.5425L170.708 58.7495L171.925 61.1821C172.396 60.6131 173.305 61.0541 173.7 61.687C174.096 62.3198 174.287 63.1277 174.851 63.5881C175.749 64.3224 177.152 63.699 177.697 62.6356C178.241 61.5722 178.151 60.2695 177.962 59.0709C177.492 56.0683 176.491 53.1737 175.005 50.5236L176.117 49.8559L174.678 49.6503L175.228 48.4008L173.723 48.383L174.316 47.3147C172.293 48.0101 170.202 46.7362 168.269 45.7864C165.076 44.1319 161.448 43.5163 157.889 44.0254C156.09 44.3179 154.372 44.9824 152.844 45.9765C151.316 46.9706 150.012 48.2725 149.014 49.7994C147.484 52.2093 146.6 55.7091 147.365 58.5949C148.06 61.2187 151.097 61.6271 150.24 65.1081Z" fill="#090814"/>
<path d="M120.114 83.2491C120.114 83.2491 117.319 82.7826 115.457 86.5146C113.594 90.2466 99.6194 120.104 106.604 129.435C113.589 138.765 120.113 141.564 120.113 141.564L121.51 142.031L128.501 134.566L126.172 131.3C126.172 131.3 126.172 128.035 124.309 127.568C122.445 127.102 122.445 128.501 121.979 126.635C121.514 124.769 123.843 126.169 121.514 124.302C119.184 122.436 121.048 121.503 121.048 121.503L120.114 83.2491Z" fill="#3F5902"/>
<path d="M169.489 145.529L169.023 149.261L162.502 141.33H164.831L169.489 145.529Z" fill="#FFB9B9"/>
<path d="M168.79 93.2784C168.79 93.2784 175.312 90.013 177.175 93.745C179.037 97.477 191.847 125.468 184.86 134.799C177.874 144.13 171.352 146.929 171.352 146.929L169.954 147.396L162.967 139.931L165.297 136.666C165.297 136.666 165.297 133.4 167.16 132.934C169.023 132.467 169.023 133.867 169.489 132C169.955 130.134 167.626 131.534 169.955 129.668C172.284 127.801 170.421 126.868 170.421 126.868L168.79 93.2784Z" fill="#3F5902"/>
<path opacity="0.2" d="M124.539 101.676L119.415 122.203L125.471 129.667L122.675 120.337L124.539 101.676Z" fill="black"/>
<path opacity="0.2" d="M149.534 65.5527L145.812 71.7716C143.474 70.9598 143.278 65.525 143.413 61.942C146.18 61.9187 149.534 65.5527 149.534 65.5527Z" fill="black"/>
<path d="M305.026 184.385C305.026 184.385 309.999 192.283 308.223 194.422C306.448 196.561 321.546 196.614 321.546 196.614C321.546 196.614 319.278 185.124 319.946 182.479L305.026 184.385Z" fill="#FFB9B9"/>
<path d="M312.974 187.248C321.585 187.248 328.566 180.256 328.566 171.631C328.566 163.007 321.585 156.015 312.974 156.015C304.363 156.015 297.382 163.007 297.382 171.631C297.382 180.256 304.363 187.248 312.974 187.248Z" fill="#090814"/>
<path d="M349.646 256.274V265.532L358.889 263.603L358.119 257.046L349.646 256.274Z" fill="#FFB9B9"/>
<path d="M382.382 257.817L408.186 262.06L401.638 271.705C401.638 271.705 383.537 265.532 378.916 265.532C374.294 265.532 382.382 257.817 382.382 257.817Z" fill="#FFB9B9"/>
<path d="M323.842 239.302C323.842 239.302 343.099 216.93 349.26 218.087C355.422 219.244 358.119 226.187 358.119 226.187L361.585 260.517C361.585 260.517 349.26 261.674 349.26 260.517C349.26 259.36 346.949 234.673 346.949 234.673C346.949 234.673 328.848 274.792 319.22 248.174L323.842 239.302Z" fill="#D6D6E3"/>
<path d="M292.646 254.345C292.646 254.345 293.033 274.554 304.585 275.711C316.137 276.868 328.848 267.074 328.848 267.074L349.645 257.095C349.645 257.095 374.294 270.16 381.611 266.688C381.611 266.688 389.314 258.588 384.307 256.274C379.301 253.959 383.92 256.274 383.92 256.274L354.265 240.845C354.265 240.845 348.488 239.302 338.475 243.545C328.462 247.788 314.982 249.717 314.982 249.717L292.646 254.345Z" fill="#D6D6E3"/>
<path d="M311.902 188.386C318.283 188.386 323.456 183.205 323.456 176.814C323.456 170.423 318.283 165.242 311.902 165.242C305.521 165.242 300.349 170.423 300.349 176.814C300.349 183.205 305.521 188.386 311.902 188.386Z" fill="#FFB9B9"/>
<path d="M328.463 209.215L327.693 225.416C327.693 225.416 328.08 246.631 324.612 248.173C322.86 248.952 319.339 250.518 316.085 252.231C313.644 253.512 311.352 254.869 310.073 256.038C309.734 256.327 309.442 256.667 309.207 257.045C307.667 259.746 297.653 259.36 295.342 257.433C293.031 255.507 294.572 259.748 292.646 260.519C290.782 261.267 288.198 255.15 289.781 246.016C289.831 245.711 289.889 245.402 289.95 245.09C291.721 236.237 288.941 215.033 289.369 206.841C289.394 206.215 289.459 205.591 289.565 204.974C290.72 198.802 305.463 186.245 308.221 191.593C311.618 198.196 319.421 192.164 320.761 189.159C328.463 188.771 331.159 198.031 331.159 198.031L328.463 209.215Z" fill="#3F5902"/>
<path d="M359.658 262.061C359.658 262.061 353.496 264.375 351.571 263.989C349.646 263.603 347.72 265.146 347.72 267.46C347.72 269.775 345.409 275.175 348.875 275.561C352.341 275.946 366.591 275.173 369.672 276.332C369.672 276.332 383.537 276.72 382.382 270.932C381.226 265.144 375.449 265.532 375.449 265.532C375.449 265.532 359.658 264.761 359.658 262.061Z" fill="#090814"/>
<path d="M404.72 263.217C404.72 263.217 405.49 260.903 406.645 260.903C407.801 260.903 417.044 262.446 418.199 262.06C419.354 261.674 432.834 260.903 430.524 267.46C428.213 274.017 420.51 274.789 420.51 274.789C420.51 274.789 406.645 273.246 404.719 273.632C402.793 274.017 395.861 273.632 397.016 271.703C398.172 269.774 405.49 266.303 404.72 263.217Z" fill="#090814"/>
<path d="M369.664 207.813L371.777 216.542C371.801 216.639 371.797 216.741 371.767 216.837L362.181 246.834C362.143 246.953 362.065 247.055 361.961 247.124C361.857 247.192 361.733 247.223 361.609 247.211C361.485 247.198 361.369 247.144 361.28 247.056C361.191 246.969 361.135 246.853 361.121 246.729L359.793 235.044C359.785 234.966 359.793 234.887 359.817 234.813L368.614 207.772C368.65 207.659 368.723 207.561 368.82 207.493C368.917 207.426 369.034 207.391 369.152 207.396C369.271 207.4 369.384 207.444 369.476 207.519C369.568 207.594 369.632 207.697 369.66 207.812L369.664 207.813Z" fill="#080712"/>
<path d="M368.885 208.55L370.836 216.039L362.382 243.392L360.431 234.926L368.885 208.55Z" fill="white"/>
<path d="M326.293 249.254C326.618 250.231 360.107 248.928 360.429 248.603C360.713 248.195 360.952 247.758 361.145 247.3C361.45 246.649 361.73 245.997 361.73 245.997L360.429 235.454L327.266 234.275C327.266 234.275 326.436 243.21 326.27 247.3C326.213 247.951 326.22 248.605 326.293 249.254Z" fill="#090814"/>
<path opacity="0.1" d="M356.205 236.88L356.855 245.998H342.225V236.88H356.205Z" fill="black"/>
<path opacity="0.1" d="M337.349 239.811L337.436 239.793L337.023 243.718H328.894V239.811H337.349Z" fill="black"/>
<path opacity="0.1" d="M326.293 249.254C326.618 250.231 360.107 248.928 360.429 248.603C360.713 248.195 360.952 247.759 361.145 247.3H326.268C326.211 247.951 326.219 248.605 326.293 249.254Z" fill="black"/>
<path d="M315.557 158.912C317.957 158.912 319.903 156.963 319.903 154.56C319.903 152.156 317.957 150.208 315.557 150.208C313.157 150.208 311.212 152.156 311.212 154.56C311.212 156.963 313.157 158.912 315.557 158.912Z" fill="#090814"/>
<path d="M314.25 159.297C314.25 159.297 309.811 166.693 299.487 169.462C289.164 172.231 299.403 187.768 299.403 187.768C299.403 187.768 295.68 182.116 301.05 176.135C306.421 170.154 315.062 166.06 314.25 159.297Z" fill="#090814"/>
<path opacity="0.1" d="M316.086 252.232C315.135 254.033 314.018 255.904 313.829 256.66C313.702 257.173 312.293 256.876 310.074 256.039C305.626 254.353 297.915 250.492 290.721 246.631C290.389 246.454 290.074 246.248 289.78 246.013C289.831 245.709 289.888 245.4 289.95 245.087C291.72 236.235 288.94 215.031 289.368 206.839L292.646 205.743L299.193 211.915V238.144C299.193 238.144 316.139 247.402 317.295 248.174C317.884 248.567 317.072 250.361 316.086 252.232Z" fill="black"/>
<path d="M330.389 231.202L340.787 236.603C340.787 236.603 346.949 230.045 350.801 235.06C354.653 240.075 339.633 241.617 339.633 241.617C339.633 241.617 326.538 238.531 326.153 234.289C325.768 230.046 330.389 231.202 330.389 231.202Z" fill="#FFB9B9"/>
<path d="M313.058 245.471L319.22 247.014C319.22 247.014 326.153 238.528 333.47 241.614C340.788 244.7 324.225 250.874 324.225 250.874C324.225 250.874 315.367 255.503 311.901 251.645C308.435 247.788 313.058 245.471 313.058 245.471Z" fill="#FFB9B9"/>
<path d="M326.537 194.558C326.925 194.946 331.159 198.029 331.159 198.029C331.159 198.029 332.314 212.687 330.772 215.773C329.229 218.859 328.075 218.859 329.231 220.401C330.387 221.944 331.927 220.789 330.386 223.487C328.846 226.185 327.305 225.802 328.461 226.959C329.616 228.116 329.231 228.501 329.231 228.501L333.852 232.359C333.852 232.359 331.017 236.882 327.428 236.549C323.839 236.216 320.757 218.858 320.757 218.858L326.537 194.558Z" fill="#3F5902"/>
<path d="M292.646 203.815L289.18 204.972C289.18 204.972 279.936 238.916 290.72 244.702C301.504 250.489 313.443 256.274 313.828 254.732C314.214 253.19 318.45 247.018 317.294 246.246C316.139 245.475 299.193 236.217 299.193 236.217V209.987L292.646 203.815Z" fill="#3F5902"/>
<path opacity="0.1" d="M297.846 217.894L297.076 236.41L317.488 246.052L298.616 236.41L297.846 217.894Z" fill="black"/>
<path d="M413.838 144.781V153.395C413.838 153.474 413.807 153.551 413.75 153.607C413.694 153.663 413.618 153.695 413.539 153.695H413.327V198.567C413.327 199.809 412.835 201 411.958 201.878C411.081 202.756 409.892 203.249 408.653 203.249H380.658C380.044 203.249 379.436 203.128 378.869 202.893C378.302 202.657 377.787 202.312 377.353 201.878C376.919 201.443 376.575 200.927 376.34 200.359C376.105 199.791 375.984 199.182 375.984 198.567V155.267H375.83C375.774 155.267 375.72 155.244 375.68 155.205C375.641 155.165 375.618 155.112 375.618 155.056V150.156C375.618 150.1 375.64 150.046 375.68 150.006C375.72 149.966 375.774 149.944 375.83 149.944H375.984V148.097H375.828C375.769 148.097 375.713 148.074 375.672 148.033C375.63 147.991 375.607 147.935 375.607 147.876V143.041C375.607 142.982 375.63 142.925 375.672 142.884C375.713 142.842 375.769 142.819 375.828 142.819H375.984V140.293H375.826C375.774 140.293 375.724 140.272 375.687 140.235C375.65 140.198 375.63 140.148 375.63 140.096V137.457C375.63 137.405 375.65 137.355 375.687 137.318C375.724 137.281 375.774 137.26 375.826 137.259H375.984V131.917C375.984 130.675 376.477 129.485 377.353 128.607C378.229 127.729 379.418 127.236 380.658 127.236H408.653C409.892 127.236 411.081 127.729 411.958 128.607C412.834 129.484 413.327 130.675 413.327 131.917V144.478H413.541C413.62 144.478 413.696 144.51 413.753 144.566C413.809 144.622 413.84 144.699 413.841 144.778L413.838 144.781Z" fill="#090814"/>
<path d="M395.805 129.375H391.65C391.357 129.375 391.12 129.613 391.12 129.906C391.12 130.199 391.357 130.436 391.65 130.436H395.805C396.098 130.436 396.335 130.199 396.335 129.906C396.335 129.613 396.098 129.375 395.805 129.375Z" fill="#E6E8EC"/>
<path d="M397.724 130.507C398.056 130.507 398.325 130.238 398.325 129.905C398.325 129.573 398.056 129.304 397.724 129.304C397.392 129.304 397.123 129.573 397.123 129.905C397.123 130.238 397.392 130.507 397.724 130.507Z" fill="#E6E8EC"/>
<path d="M412.067 131.662V198.908C412.05 199.726 411.709 200.504 411.119 201.07C410.53 201.636 409.74 201.945 408.924 201.928H380.52C379.693 201.932 378.896 201.616 378.296 201.046C378.007 200.77 377.776 200.439 377.618 200.071C377.46 199.704 377.378 199.308 377.377 198.908V131.662C377.394 130.844 377.735 130.066 378.324 129.5C378.914 128.933 379.704 128.624 380.52 128.641H384.771V129.165C384.785 129.839 385.066 130.479 385.551 130.946C386.036 131.412 386.687 131.667 387.359 131.653H401.805C402.478 131.667 403.128 131.412 403.614 130.946C404.099 130.479 404.38 129.839 404.394 129.165V128.641H408.924C409.741 128.624 410.531 128.933 411.12 129.5C411.71 130.066 412.051 130.844 412.067 131.662Z" fill="white"/>
<path d="M382.206 173.396H407.348C407.485 173.396 407.621 173.423 407.748 173.475C407.875 173.528 407.991 173.605 408.088 173.703C408.185 173.8 408.262 173.916 408.315 174.043C408.368 174.17 408.395 174.307 408.395 174.444V175.889C408.394 176.167 408.284 176.433 408.088 176.63C407.891 176.826 407.625 176.936 407.348 176.936H382.206C381.929 176.936 381.663 176.826 381.466 176.63C381.27 176.433 381.159 176.167 381.159 175.889V174.448C381.158 174.31 381.185 174.173 381.237 174.046C381.29 173.918 381.367 173.802 381.464 173.704C381.562 173.606 381.677 173.529 381.804 173.476C381.932 173.423 382.068 173.396 382.206 173.396Z" fill="#E6E6E6"/>
<path d="M382.206 179.69H407.348C407.485 179.69 407.621 179.717 407.748 179.77C407.875 179.823 407.991 179.9 408.088 179.997C408.185 180.095 408.262 180.21 408.315 180.337C408.368 180.465 408.395 180.601 408.395 180.739V182.183C408.394 182.461 408.284 182.728 408.088 182.924C407.891 183.12 407.625 183.231 407.348 183.231H382.206C381.929 183.231 381.663 183.12 381.466 182.924C381.27 182.728 381.159 182.461 381.159 182.183V180.743C381.158 180.605 381.185 180.468 381.237 180.34C381.29 180.212 381.367 180.096 381.464 179.999C381.562 179.901 381.677 179.823 381.804 179.77C381.932 179.717 382.068 179.69 382.206 179.69Z" fill="#E6E6E6"/>
<path d="M382.206 185.985H407.348C407.485 185.985 407.621 186.012 407.748 186.065C407.875 186.118 407.991 186.195 408.088 186.293C408.185 186.39 408.262 186.506 408.315 186.633C408.368 186.76 408.395 186.897 408.395 187.034V188.479C408.394 188.757 408.284 189.023 408.088 189.22C407.891 189.416 407.625 189.526 407.348 189.526H382.206C381.929 189.526 381.663 189.416 381.466 189.22C381.27 189.023 381.159 188.757 381.159 188.479V187.038C381.158 186.9 381.185 186.763 381.237 186.636C381.29 186.508 381.367 186.392 381.464 186.294C381.562 186.196 381.677 186.119 381.804 186.066C381.932 186.013 382.068 185.985 382.206 185.985Z" fill="#E6E6E6"/>
<path d="M405.383 141.789C406.83 141.789 408.003 140.615 408.003 139.166C408.003 137.717 406.83 136.543 405.383 136.543C403.937 136.543 402.764 137.717 402.764 139.166C402.764 140.615 403.937 141.789 405.383 141.789Z" fill="#3F5902"/>
<path d="M382.151 147.953H407.293C407.43 147.953 407.566 147.98 407.694 148.032C407.821 148.085 407.936 148.162 408.033 148.26C408.131 148.357 408.208 148.473 408.26 148.6C408.313 148.727 408.34 148.864 408.34 149.002V165.002C408.34 165.14 408.313 165.276 408.26 165.403C408.208 165.531 408.131 165.646 408.033 165.744C407.936 165.841 407.821 165.918 407.694 165.971C407.566 166.024 407.43 166.051 407.293 166.051H382.151C381.874 166.051 381.607 165.94 381.411 165.744C381.214 165.547 381.104 165.28 381.104 165.002V149.002C381.104 148.723 381.214 148.457 381.411 148.26C381.607 148.063 381.874 147.953 382.151 147.953Z" fill="#E6E6E6"/>
<path d="M391.105 158.128C391.9 161.072 394.624 162.894 394.624 162.894C394.624 162.894 396.059 159.943 395.264 156.999C394.469 154.055 391.744 152.234 391.744 152.234C391.744 152.234 390.311 155.184 391.105 158.128Z" fill="#090814"/>
<path d="M392.273 157.496C394.455 159.623 394.722 162.894 394.722 162.894C394.722 162.894 391.451 162.715 389.269 160.588C387.087 158.46 386.82 155.189 386.82 155.189C386.82 155.189 390.091 155.368 392.273 157.496Z" fill="#3F5902"/>
<path d="M398.339 158.128C397.544 161.072 394.82 162.894 394.82 162.894C394.82 162.894 393.385 159.943 394.18 156.999C394.976 154.055 397.7 152.234 397.7 152.234C397.7 152.234 399.135 155.184 398.339 158.128Z" fill="#090814"/>
<path d="M397.171 157.496C394.989 159.623 394.722 162.894 394.722 162.894C394.722 162.894 397.993 162.715 400.176 160.588C402.358 158.46 402.624 155.189 402.624 155.189C402.624 155.189 399.353 155.368 397.171 157.496Z" fill="#3F5902"/>
<path d="M468.007 275.729H266.62V276.971H468.007V275.729Z" fill="#CCCCCC"/>
<path d="M654.041 272.956H516.5C516.3 272.956 516.139 272.711 516.139 272.409C516.139 272.107 516.3 271.862 516.5 271.862H654.041C654.24 271.862 654.402 272.107 654.402 272.409C654.402 272.711 654.241 272.956 654.041 272.956Z" fill="#F2F2F2"/>
<path d="M554.703 87.1885C554.898 87.2479 555.108 87.2378 555.296 87.1598C555.485 87.0818 555.641 86.9408 555.737 86.7607C556.567 85.4491 555.038 83.7573 555.369 82.2396C555.635 81.0239 557.014 80.3002 557.296 79.0894C557.573 77.9113 556.726 76.5837 557.296 75.5181C557.743 74.683 558.86 74.4653 559.795 74.6099C560.73 74.7545 561.617 75.1679 562.562 75.2255C563.82 75.3025 565.019 74.7473 566.25 74.4725C567.48 74.1976 568.981 74.3062 569.705 75.3391C570.634 76.669 569.691 78.5148 570.015 80.1046C570.272 81.3657 571.326 82.4103 571.349 83.6975C571.357 84.1552 570.156 83.7867 570.22 84.2394C570.285 84.6921 569.717 84.2948 570.17 84.2394C570.355 84.194 570.521 84.0906 570.644 83.9444C570.767 83.7982 570.84 83.6166 570.853 83.426C570.908 83.0486 571.615 82.9228 571.607 82.5394C571.588 81.6461 573.2 82.2485 573.466 81.3957C574.077 79.4073 573.951 77.2652 573.113 75.3618C572.681 74.5844 572.336 73.7615 572.084 72.9082C571.848 71.724 572.22 70.4523 571.829 69.3097C571.303 67.7698 569.561 66.9824 567.943 66.825C566.325 66.6677 564.682 66.9508 563.074 66.7142C561.636 66.5036 560.239 65.878 558.786 65.9689C557.042 66.0797 555.525 67.2029 554.317 68.4663C553.109 69.7297 552.083 71.1815 550.71 72.2648C550.29 72.5546 549.902 72.889 549.554 73.2623C549.24 73.717 549.026 74.2336 548.926 74.7777C548.827 75.3218 548.845 75.8808 548.978 76.4174C549.173 77.5041 549.596 78.5403 549.775 79.6313C549.941 80.6548 549.891 81.701 549.963 82.7344C549.98 83.7781 550.296 84.7951 550.872 85.6646C551.121 86.0034 551.445 86.2808 551.817 86.4756C552.189 86.6704 552.601 86.7776 553.021 86.7889C553.312 86.7956 553.558 86.534 553.851 86.6022C554.217 86.6898 554.377 87.0388 554.703 87.1885Z" fill="#2F2E41"/>
<path d="M542.258 162.391L543.336 169.027L545.494 166.095L544.261 161.62L542.258 162.391Z" fill="#9F616A"/>
<path d="M543.645 112.244L541.947 116.726C541.947 116.726 540.256 139.556 540.256 141.252C540.256 142.949 541.488 164.706 541.95 165.634C541.95 165.634 543.953 162.702 546.572 163.165C549.191 163.628 548.113 155.45 548.113 155.45L550.578 135.237L550.116 125.053L543.645 112.244Z" fill="#3F5902"/>
<path opacity="0.1" d="M543.645 112.244L541.947 116.726C541.947 116.726 540.256 139.556 540.256 141.252C540.256 142.949 541.488 164.706 541.95 165.634C541.95 165.634 543.953 162.702 546.572 163.165C549.191 163.628 548.113 155.45 548.113 155.45L550.578 135.237L550.116 125.053L543.645 112.244Z" fill="#090814"/>
<path d="M554.12 87.5565C554.12 87.5565 559.204 100.518 556.278 102.987C553.351 105.455 572.608 98.8207 572.608 98.8207L572.146 97.1234C572.146 97.1234 565.83 94.6548 568.911 87.557C571.992 80.4593 554.12 87.5565 554.12 87.5565Z" fill="#9F616A"/>
<path opacity="0.1" d="M554.12 87.5565C554.12 87.5565 559.204 100.518 556.278 102.987C553.351 105.455 572.608 98.8207 572.608 98.8207L572.146 97.1234C572.146 97.1234 565.83 94.6548 568.911 87.557C571.992 80.4593 554.12 87.5565 554.12 87.5565Z" fill="black"/>
<path d="M546.11 260.681C546.11 260.681 543.953 260.063 542.721 261.606C541.489 263.15 536.867 267.007 536.867 267.007C536.867 267.007 527.931 266.081 526.699 270.553C525.467 275.026 540.719 275.028 544.416 273.948C548.114 272.868 548.884 273.948 548.884 273.948C548.884 273.948 560.284 274.874 560.284 273.022C560.284 271.17 559.206 264.844 559.206 264.844L546.11 260.681Z" fill="#090814"/>
<path d="M582.315 271.019L580.312 277.191C580.312 277.191 574.304 285.523 577.693 287.22C581.082 288.918 593.099 290.615 593.099 286.14V277.653C593.099 277.653 591.866 271.636 590.634 271.018C589.402 270.401 582.315 271.019 582.315 271.019Z" fill="#090814"/>
<path d="M548.292 160.134C548.292 160.134 541.797 165.786 541.95 166.558C542.104 167.329 545.186 216.86 545.186 216.86L546.88 248.954C546.88 248.954 544.723 256.514 545.802 258.212C546.882 259.909 544.261 260.373 544.261 260.373C544.261 260.373 555.354 270.402 559.974 266.08L564.289 210.069L576.153 250.806C576.153 250.806 578.156 272.408 580.468 272.408C582.781 272.408 592.177 272.87 592.023 271.636C591.868 270.402 592.485 260.989 591.406 255.435C590.328 249.88 583.087 205.905 583.087 205.905C583.087 205.905 582.465 168.205 584.083 164.681C585.701 161.158 583.239 157.454 583.239 157.454L572.454 153.289L559.513 154.832L548.292 160.134Z" fill="#090814"/>
<path d="M561.362 71.2002C563.495 71.2002 565.58 71.8337 567.353 73.0205C569.127 74.2073 570.509 75.8942 571.325 77.8678C572.142 79.8414 572.355 82.0131 571.939 84.1083C571.523 86.2035 570.496 88.128 568.988 89.6386C567.479 91.1491 565.558 92.1778 563.466 92.5945C561.374 93.0113 559.206 92.7974 557.235 91.9799C555.265 91.1624 553.58 89.778 552.395 88.0018C551.21 86.2256 550.578 84.1374 550.578 82.0011C550.578 79.1365 551.714 76.3893 553.737 74.3637C555.759 72.3381 558.502 71.2002 561.362 71.2002Z" fill="#9F616A"/>
<path d="M587.552 105.301C587.02 103.791 586.122 102.437 584.939 101.36C583.756 100.283 582.325 99.5165 580.774 99.1289C577.666 98.346 574.627 97.314 571.684 96.043C571.684 96.043 560.746 101.289 558.589 101.289C556.433 101.289 556.431 99.9008 556.431 99.9008C556.431 99.9008 550.886 105.764 547.958 106.384C545.031 107.004 540.717 114.253 542.26 118.265C543.306 120.837 544.821 123.192 546.727 125.209C546.727 125.209 546.111 146.811 548.114 150.822C548.114 150.822 543.184 160.235 547.805 160.852C552.427 161.469 570.145 159.309 573.226 161.469C576.307 163.63 582.007 161.007 582.777 163.938C583.547 166.869 585.242 167.484 585.242 167.484C585.242 167.484 587.861 163.318 586.32 160.849C584.78 158.38 587.552 105.301 587.552 105.301Z" fill="#3F5902"/>
<path d="M576.152 163.317L573.687 164.861C573.687 164.861 576.306 173.964 577.384 174.273C578.462 174.582 581.001 166.489 581.001 166.489L576.152 163.317Z" fill="#9F616A"/>
<path d="M552.854 86.109C553.049 86.1679 553.259 86.1574 553.447 86.0795C553.635 86.0015 553.791 85.8609 553.888 85.6812C554.718 84.3696 553.189 82.6779 553.52 81.1602C553.786 79.9444 555.165 79.2207 555.447 78.01C555.724 76.8319 554.877 75.5042 555.447 74.4387C555.894 73.6036 557.011 73.3858 557.946 73.5305C558.881 73.6751 559.768 74.0885 560.712 74.1461C561.971 74.2231 563.17 73.6679 564.401 73.393C565.631 73.1182 567.132 73.2268 567.856 74.2597C568.785 75.5896 567.842 77.4354 568.166 79.0251C568.423 80.2863 571.351 81.1718 571.616 80.319C572.227 78.3307 572.102 76.1885 571.263 74.2852C570.831 73.5077 570.486 72.6848 570.235 71.8315C569.998 70.6474 570.37 69.3757 569.98 68.2331C569.453 66.6932 567.711 65.9058 566.094 65.7484C564.476 65.591 562.833 65.8742 561.225 65.6376C559.786 65.427 558.389 64.8014 556.936 64.8923C555.193 65.0031 553.676 66.1263 552.467 67.3897C551.258 68.6531 550.233 70.1049 548.86 71.1882C548.44 71.4779 548.052 71.8123 547.704 72.1856C547.389 72.6402 547.175 73.1567 547.075 73.7008C546.975 74.2449 546.993 74.804 547.126 75.3408C547.321 76.4274 547.744 77.4636 547.923 78.5547C548.089 79.5781 548.039 80.6243 548.111 81.6578C548.128 82.7015 548.444 83.7184 549.02 84.588C549.269 84.9267 549.592 85.204 549.965 85.3988C550.337 85.5937 550.749 85.7009 551.169 85.7123C551.46 85.7189 551.705 85.4574 551.999 85.5255C552.368 85.6103 552.528 85.9594 552.854 86.109Z" fill="#090814"/>
<path opacity="0.1" d="M581.467 108.001L586.474 105.3C586.474 105.3 598.646 134.309 595.718 142.332C592.79 150.356 581.545 166.866 581.545 166.866C581.545 166.866 572.609 165.015 573.533 163.163C574.458 161.311 580.466 149.43 580.928 147.887C581.39 146.345 584.469 136.315 583.086 135.234C581.703 134.154 579.003 109.08 579.003 109.08L581.467 108.001Z" fill="black"/>
<path d="M581.39 103.603L587.552 105.3C587.552 105.3 599.724 134.309 596.796 142.332C593.868 150.356 582.622 166.866 582.622 166.866C582.622 166.866 573.687 165.015 574.611 163.163C575.536 161.311 581.544 149.43 582.006 147.887C582.468 146.345 585.547 136.315 584.164 135.235C582.781 134.154 576.152 107.46 576.152 107.46L581.39 103.603Z" fill="#3F5902"/>
<path d="M626.061 50.2146C626.061 38.9765 642.514 29.8667 662.809 29.8667C683.105 29.8667 699.558 38.977 699.558 50.2146" stroke="#3F3D56" stroke-width="2" stroke-miterlimit="10"/>
<path d="M674.364 37.7009H644.468C638.554 27.7197 638.554 17.7387 644.468 7.75781H674.364C666.096 17.739 666.096 27.72 674.364 37.7009Z" fill="#E6E6E6"/>
<path d="M665.585 11.3223H648.738V13.4612H665.585V11.3223Z" fill="#3F5902"/>
<path d="M699.558 50.2139C699.558 61.9962 683.105 71.5476 662.809 71.5476C642.514 71.5476 626.061 61.9962 626.061 50.2139" stroke="#3F3D56" stroke-width="2" stroke-miterlimit="10"/>
<path d="M692.873 71.8511C684.659 76.2879 673.941 78.9732 662.216 78.9732C650.975 78.9732 640.659 76.5051 632.588 72.3908" stroke="#3F3D56" stroke-width="2" stroke-miterlimit="10"/>
<path d="M681.161 24.3584C696.794 28.4739 707.927 37.5254 708.962 48.1856" stroke="#3F3D56" stroke-width="2" stroke-miterlimit="10"/>
<path d="M617.648 41.2573C620.282 36.4088 625.094 32.1415 631.398 28.8633" stroke="#3F3D56" stroke-width="2" stroke-miterlimit="10"/>
<path d="M649.966 93.1594H679.863C685.776 83.1782 685.776 73.1972 679.863 63.2163H649.966C658.234 73.1975 658.234 83.1786 649.966 93.1594Z" fill="#E6E6E6"/>
<path d="M676.705 68.9199H659.858V71.0588H676.705V68.9199Z" fill="#3F5902"/>
<path d="M637.292 72.8361H607.396C601.482 62.8549 601.482 52.8739 607.396 42.8931H637.292C629.024 52.8739 629.024 62.8549 637.292 72.8361Z" fill="#E6E6E6"/>
<path d="M627.564 46.4575H610.718V48.5964H627.564V46.4575Z" fill="#3F5902"/>
<path d="M686.171 59.0437H716.067C721.98 49.0625 721.98 39.0814 716.067 29.1006H686.171C694.437 39.0814 694.437 49.0625 686.171 59.0437Z" fill="#E6E6E6"/>
<path d="M712.552 32.0703H695.705V34.2092H712.552V32.0703Z" fill="#3F5902"/>
</g>
<defs>
<clipPath id="clip0_344_2783">
<rect width="720" height="289" fill="white" transform="translate(0.5)"/>
</clipPath>
</defs>
</svg>
